<?xml version="1.0" encoding="UTF-8"?>
<svg xmlns="http://www.w3.org/2000/svg" xmlns:xlink="http://www.w3.org/1999/xlink" width="16px" height="16px" viewBox="0 0 16 16" version="1.1">
<g id="surface1">
<path style=" stroke:none;fill-rule:nonzero;fill:rgb(0%,54.509807%,83.529413%);fill-opacity:1;" d="M 4.886719 5.316406 C 4.929688 5.316406 4.976562 5.316406 5.019531 5.316406 C 5.136719 5.316406 5.253906 5.316406 5.371094 5.316406 C 5.496094 5.316406 5.617188 5.316406 5.742188 5.316406 C 5.976562 5.316406 6.207031 5.320312 6.441406 5.320312 C 6.707031 5.320312 6.972656 5.320312 7.238281 5.320312 C 7.785156 5.320312 8.328125 5.324219 8.875 5.324219 C 8.796875 5.613281 8.796875 5.613281 8.75 5.738281 C 8.742188 5.765625 8.734375 5.789062 8.722656 5.8125 C 8.710938 5.851562 8.710938 5.851562 8.695312 5.890625 C 8.683594 5.917969 8.675781 5.945312 8.664062 5.972656 C 8.644531 6.03125 8.621094 6.089844 8.597656 6.148438 C 8.539062 6.308594 8.480469 6.46875 8.421875 6.628906 C 8.414062 6.644531 8.410156 6.664062 8.402344 6.679688 C 8.273438 7.027344 8.148438 7.375 8.023438 7.726562 C 7.84375 8.234375 7.660156 8.738281 7.472656 9.246094 C 7.308594 9.691406 7.144531 10.140625 6.988281 10.589844 C 6.863281 10.945312 6.730469 11.296875 6.601562 11.648438 C 5.90625 11.648438 5.214844 11.648438 4.5 11.648438 C 4.515625 11.546875 4.53125 11.46875 4.566406 11.375 C 4.582031 11.339844 4.582031 11.339844 4.59375 11.300781 C 4.609375 11.261719 4.609375 11.261719 4.625 11.222656 C 4.636719 11.195312 4.644531 11.167969 4.65625 11.140625 C 4.683594 11.0625 4.710938 10.988281 4.738281 10.914062 C 4.792969 10.765625 4.847656 10.621094 4.902344 10.472656 C 4.910156 10.457031 4.914062 10.441406 4.921875 10.425781 C 5.050781 10.074219 5.175781 9.722656 5.300781 9.371094 C 5.476562 8.878906 5.652344 8.390625 5.832031 7.898438 C 5.84375 7.871094 5.851562 7.839844 5.863281 7.808594 C 5.925781 7.636719 5.988281 7.46875 6.050781 7.300781 C 5.875 7.296875 5.703125 7.296875 5.527344 7.296875 C 5.46875 7.296875 5.410156 7.296875 5.351562 7.296875 C 4.730469 7.292969 4.730469 7.292969 4.125 7.414062 C 4.105469 7.421875 4.085938 7.425781 4.0625 7.433594 C 3.722656 7.542969 3.425781 7.722656 3.148438 7.949219 C 3.132812 7.960938 3.117188 7.976562 3.101562 7.988281 C 2.597656 8.386719 2.316406 9.054688 2.226562 9.675781 C 2.199219 10.050781 2.210938 10.414062 2.324219 10.773438 C 2.332031 10.792969 2.335938 10.808594 2.339844 10.828125 C 2.460938 11.203125 2.660156 11.53125 2.925781 11.824219 C 2.941406 11.84375 2.960938 11.863281 2.976562 11.882812 C 3.414062 12.34375 4.054688 12.644531 4.691406 12.679688 C 4.792969 12.683594 4.894531 12.683594 4.996094 12.683594 C 5.039062 12.683594 5.078125 12.683594 5.117188 12.683594 C 5.222656 12.683594 5.332031 12.683594 5.441406 12.683594 C 5.558594 12.683594 5.671875 12.683594 5.789062 12.683594 C 5.992188 12.683594 6.195312 12.683594 6.394531 12.683594 C 6.6875 12.683594 6.980469 12.6875 7.269531 12.6875 C 7.746094 12.6875 8.21875 12.6875 8.691406 12.6875 C 9.152344 12.691406 9.613281 12.691406 10.070312 12.691406 C 10.113281 12.691406 10.113281 12.691406 10.15625 12.691406 C 10.300781 12.691406 10.441406 12.691406 10.585938 12.691406 C 11.765625 12.695312 12.945312 12.699219 14.125 12.699219 C 14.164062 12.773438 14.203125 12.851562 14.242188 12.925781 C 14.261719 12.957031 14.261719 12.957031 14.277344 12.988281 C 14.375 13.171875 14.464844 13.355469 14.558594 13.535156 C 14.574219 13.570312 14.589844 13.601562 14.605469 13.632812 C 14.636719 13.695312 14.671875 13.761719 14.703125 13.828125 C 14.746094 13.910156 14.789062 13.996094 14.828125 14.078125 C 14.863281 14.144531 14.894531 14.207031 14.925781 14.273438 C 14.941406 14.304688 14.957031 14.335938 14.972656 14.367188 C 14.996094 14.410156 15.015625 14.449219 15.039062 14.492188 C 15.050781 14.519531 15.0625 14.542969 15.074219 14.566406 C 15.101562 14.625 15.101562 14.625 15.101562 14.675781 C 13.765625 14.675781 12.429688 14.679688 11.097656 14.679688 C 10.941406 14.679688 10.78125 14.679688 10.625 14.679688 C 10.59375 14.679688 10.5625 14.679688 10.527344 14.679688 C 10.019531 14.679688 9.515625 14.679688 9.007812 14.679688 C 8.484375 14.679688 7.964844 14.683594 7.441406 14.683594 C 7.121094 14.683594 6.800781 14.683594 6.476562 14.683594 C 6.257812 14.683594 6.035156 14.683594 5.816406 14.683594 C 5.6875 14.683594 5.5625 14.683594 5.433594 14.683594 C 4.214844 14.6875 4.214844 14.6875 3.6875 14.53125 C 3.667969 14.523438 3.644531 14.515625 3.621094 14.511719 C 3.554688 14.492188 3.488281 14.46875 3.425781 14.449219 C 3.40625 14.445312 3.390625 14.4375 3.371094 14.433594 C 2.199219 14.058594 1.257812 13.152344 0.699219 12.074219 C 0.144531 10.976562 0.0664062 9.667969 0.449219 8.5 C 0.625 8.007812 0.859375 7.566406 1.175781 7.148438 C 1.191406 7.128906 1.207031 7.105469 1.226562 7.082031 C 1.492188 6.738281 1.816406 6.421875 2.175781 6.175781 C 2.203125 6.15625 2.226562 6.136719 2.257812 6.117188 C 2.707031 5.816406 3.191406 5.597656 3.710938 5.457031 C 3.730469 5.453125 3.746094 5.445312 3.761719 5.441406 C 4.132812 5.347656 4.503906 5.3125 4.886719 5.316406 Z M 4.886719 5.316406 "/>
<path style=" stroke:none;fill-rule:nonzero;fill:rgb(0%,54.509807%,83.529413%);fill-opacity:1;" d="M 0.898438 2.300781 C 2.226562 2.296875 3.554688 2.296875 4.882812 2.296875 C 5.039062 2.296875 5.195312 2.296875 5.351562 2.296875 C 5.382812 2.296875 5.414062 2.296875 5.449219 2.296875 C 5.953125 2.296875 6.457031 2.292969 6.960938 2.292969 C 7.480469 2.292969 8 2.292969 8.519531 2.292969 C 8.839844 2.292969 9.15625 2.292969 9.476562 2.292969 C 9.699219 2.292969 9.917969 2.292969 10.136719 2.292969 C 10.261719 2.292969 10.390625 2.292969 10.515625 2.292969 C 11.945312 2.285156 13.234375 2.5625 14.300781 3.574219 C 14.320312 3.59375 14.320312 3.59375 14.34375 3.613281 C 15.269531 4.492188 15.707031 5.648438 15.78125 6.90625 C 15.78125 6.980469 15.777344 7.050781 15.773438 7.125 C 15.773438 7.144531 15.773438 7.164062 15.773438 7.183594 C 15.703125 8.363281 15.246094 9.414062 14.433594 10.265625 C 14.40625 10.292969 14.375 10.324219 14.347656 10.355469 C 13.800781 10.929688 13.042969 11.316406 12.285156 11.519531 C 12.257812 11.527344 12.257812 11.527344 12.234375 11.535156 C 11.863281 11.628906 11.492188 11.660156 11.109375 11.660156 C 11.066406 11.660156 11.023438 11.660156 10.976562 11.660156 C 10.859375 11.660156 10.742188 11.65625 10.625 11.65625 C 10.5 11.65625 10.375 11.65625 10.25 11.65625 C 10.015625 11.65625 9.78125 11.65625 9.546875 11.65625 C 9.28125 11.65625 9.011719 11.652344 8.746094 11.652344 C 8.199219 11.652344 7.648438 11.652344 7.101562 11.648438 C 7.140625 11.535156 7.179688 11.421875 7.222656 11.304688 C 7.234375 11.265625 7.25 11.226562 7.261719 11.1875 C 7.375 10.867188 7.488281 10.550781 7.605469 10.230469 C 7.660156 10.085938 7.714844 9.9375 7.765625 9.792969 C 7.78125 9.746094 7.78125 9.746094 7.800781 9.699219 C 7.921875 9.367188 8.039062 9.035156 8.160156 8.703125 C 8.183594 8.644531 8.203125 8.582031 8.226562 8.523438 C 8.28125 8.371094 8.335938 8.21875 8.390625 8.066406 C 8.546875 7.640625 8.703125 7.210938 8.855469 6.78125 C 8.910156 6.640625 8.960938 6.5 9.011719 6.355469 C 9.058594 6.226562 9.105469 6.09375 9.152344 5.964844 C 9.171875 5.914062 9.1875 5.867188 9.207031 5.820312 C 9.230469 5.753906 9.253906 5.691406 9.277344 5.625 C 9.28125 5.605469 9.289062 5.585938 9.296875 5.566406 C 9.328125 5.484375 9.359375 5.40625 9.398438 5.324219 C 10.09375 5.324219 10.785156 5.324219 11.5 5.324219 C 11.453125 5.488281 11.402344 5.648438 11.34375 5.804688 C 11.335938 5.828125 11.328125 5.847656 11.320312 5.871094 C 11.292969 5.945312 11.265625 6.015625 11.242188 6.085938 C 11.222656 6.140625 11.203125 6.191406 11.183594 6.242188 C 11.144531 6.351562 11.105469 6.464844 11.0625 6.574219 C 11 6.753906 10.933594 6.933594 10.871094 7.109375 C 10.859375 7.140625 10.847656 7.171875 10.835938 7.203125 C 10.824219 7.234375 10.8125 7.265625 10.800781 7.296875 C 10.628906 7.777344 10.453125 8.261719 10.277344 8.746094 C 10.261719 8.792969 10.242188 8.835938 10.226562 8.882812 C 10.128906 9.15625 10.027344 9.429688 9.925781 9.699219 C 10.105469 9.699219 10.285156 9.695312 10.464844 9.695312 C 10.527344 9.691406 10.585938 9.691406 10.648438 9.691406 C 11.3125 9.683594 11.3125 9.683594 11.957031 9.53125 C 11.972656 9.527344 11.992188 9.519531 12.011719 9.511719 C 12.710938 9.257812 13.234375 8.738281 13.554688 8.070312 C 13.84375 7.4375 13.847656 6.695312 13.613281 6.042969 C 13.496094 5.75 13.351562 5.492188 13.148438 5.25 C 13.132812 5.230469 13.121094 5.210938 13.105469 5.191406 C 12.816406 4.84375 12.40625 4.59375 11.988281 4.441406 C 11.972656 4.433594 11.957031 4.429688 11.941406 4.421875 C 11.621094 4.316406 11.296875 4.289062 10.964844 4.289062 C 10.925781 4.289062 10.886719 4.289062 10.847656 4.289062 C 10.738281 4.289062 10.632812 4.289062 10.523438 4.289062 C 10.40625 4.289062 10.289062 4.289062 10.171875 4.289062 C 9.972656 4.289062 9.769531 4.289062 9.570312 4.289062 C 9.277344 4.289062 8.984375 4.285156 8.695312 4.285156 C 8.222656 4.285156 7.75 4.285156 7.273438 4.285156 C 6.816406 4.28125 6.355469 4.28125 5.898438 4.28125 C 5.871094 4.28125 5.839844 4.28125 5.8125 4.28125 C 5.667969 4.28125 5.527344 4.28125 5.386719 4.28125 C 4.207031 4.277344 3.027344 4.277344 1.851562 4.273438 C 1.726562 4.027344 1.601562 3.78125 1.476562 3.535156 C 1.421875 3.421875 1.363281 3.308594 1.304688 3.191406 C 1.25 3.082031 1.195312 2.972656 1.140625 2.859375 C 1.117188 2.820312 1.097656 2.777344 1.074219 2.734375 C 1.046875 2.675781 1.015625 2.617188 0.988281 2.558594 C 0.976562 2.539062 0.96875 2.523438 0.960938 2.503906 C 0.925781 2.433594 0.898438 2.382812 0.898438 2.300781 Z M 0.898438 2.300781 "/>
<path style=" stroke:none;fill-rule:nonzero;fill:rgb(0.392157%,43.529412%,76.47059%);fill-opacity:1;" d="M 4.886719 5.316406 C 4.929688 5.316406 4.976562 5.316406 5.019531 5.316406 C 5.136719 5.316406 5.253906 5.316406 5.371094 5.316406 C 5.496094 5.316406 5.617188 5.316406 5.742188 5.316406 C 5.976562 5.316406 6.207031 5.320312 6.441406 5.320312 C 6.707031 5.320312 6.972656 5.320312 7.238281 5.320312 C 7.785156 5.320312 8.328125 5.324219 8.875 5.324219 C 8.796875 5.613281 8.796875 5.613281 8.75 5.738281 C 8.742188 5.765625 8.734375 5.789062 8.722656 5.8125 C 8.710938 5.851562 8.710938 5.851562 8.695312 5.890625 C 8.683594 5.917969 8.675781 5.945312 8.664062 5.972656 C 8.644531 6.03125 8.621094 6.089844 8.597656 6.148438 C 8.539062 6.308594 8.480469 6.46875 8.421875 6.628906 C 8.414062 6.644531 8.410156 6.664062 8.402344 6.679688 C 8.273438 7.027344 8.148438 7.375 8.023438 7.726562 C 7.84375 8.234375 7.660156 8.738281 7.472656 9.246094 C 7.308594 9.691406 7.144531 10.140625 6.988281 10.589844 C 6.863281 10.945312 6.730469 11.296875 6.601562 11.648438 C 5.90625 11.648438 5.214844 11.648438 4.5 11.648438 C 4.515625 11.546875 4.53125 11.46875 4.566406 11.375 C 4.582031 11.339844 4.582031 11.339844 4.59375 11.300781 C 4.609375 11.261719 4.609375 11.261719 4.625 11.222656 C 4.636719 11.195312 4.644531 11.167969 4.65625 11.140625 C 4.683594 11.0625 4.710938 10.988281 4.738281 10.914062 C 4.792969 10.765625 4.847656 10.621094 4.902344 10.472656 C 4.910156 10.457031 4.914062 10.441406 4.921875 10.425781 C 5.050781 10.074219 5.175781 9.722656 5.300781 9.371094 C 5.476562 8.878906 5.652344 8.390625 5.832031 7.898438 C 5.84375 7.871094 5.851562 7.839844 5.863281 7.808594 C 5.925781 7.636719 5.988281 7.46875 6.050781 7.300781 C 5.875 7.300781 5.703125 7.300781 5.527344 7.296875 C 5.46875 7.296875 5.410156 7.296875 5.351562 7.296875 C 5.050781 7.296875 4.75 7.296875 4.453125 7.320312 C 4.382812 7.324219 4.3125 7.324219 4.242188 7.320312 C 3.378906 7.316406 2.523438 7.757812 1.925781 8.347656 C 1.828125 8.445312 1.730469 8.542969 1.636719 8.640625 C 1.605469 8.667969 1.578125 8.695312 1.550781 8.726562 C 1.496094 8.796875 1.449219 8.875 1.398438 8.949219 C 1.386719 8.972656 1.371094 8.992188 1.355469 9.015625 C 1.242188 9.1875 1.15625 9.363281 1.074219 9.550781 C 1.0625 9.582031 1.0625 9.582031 1.046875 9.613281 C 0.953125 9.808594 0.898438 10.007812 0.859375 10.222656 C 0.851562 10.273438 0.851562 10.273438 0.824219 10.351562 C 0.820312 10.398438 0.8125 10.449219 0.808594 10.496094 C 0.800781 10.550781 0.800781 10.550781 0.789062 10.605469 C 0.773438 10.679688 0.773438 10.75 0.773438 10.824219 C 0.773438 10.851562 0.773438 10.882812 0.773438 10.910156 C 0.773438 10.953125 0.773438 10.953125 0.773438 11 C 0.773438 11.03125 0.773438 11.058594 0.773438 11.089844 C 0.773438 11.117188 0.773438 11.144531 0.773438 11.175781 C 0.773438 11.199219 0.773438 11.226562 0.773438 11.253906 C 0.773438 11.320312 0.785156 11.382812 0.800781 11.449219 C 0.804688 11.492188 0.808594 11.53125 0.8125 11.570312 C 0.816406 11.652344 0.828125 11.722656 0.851562 11.800781 C 0.875 11.875 0.875 11.875 0.851562 11.925781 C 0.867188 11.925781 0.882812 11.925781 0.898438 11.925781 C 0.902344 11.949219 0.90625 11.976562 0.90625 12 C 0.921875 12.078125 0.933594 12.125 0.964844 12.195312 C 0.976562 12.222656 0.988281 12.246094 1 12.273438 C 0.992188 12.292969 0.984375 12.308594 0.976562 12.324219 C 0.992188 12.332031 1.007812 12.339844 1.023438 12.351562 C 1.042969 12.390625 1.0625 12.429688 1.078125 12.472656 C 1.109375 12.550781 1.144531 12.625 1.179688 12.703125 C 1.199219 12.75 1.199219 12.75 1.199219 12.800781 C 1.214844 12.808594 1.234375 12.816406 1.25 12.824219 C 1.25 12.851562 1.25 12.875 1.25 12.898438 C 0.566406 12.253906 0.246094 11.105469 0.21875 10.191406 C 0.199219 9.078125 0.5 8.039062 1.175781 7.148438 C 1.191406 7.128906 1.207031 7.105469 1.226562 7.082031 C 1.492188 6.738281 1.816406 6.421875 2.175781 6.175781 C 2.203125 6.15625 2.226562 6.136719 2.257812 6.117188 C 2.707031 5.816406 3.191406 5.597656 3.710938 5.457031 C 3.730469 5.453125 3.746094 5.445312 3.761719 5.441406 C 4.132812 5.347656 4.503906 5.3125 4.886719 5.316406 Z M 4.886719 5.316406 "/>
<path style=" stroke:none;fill-rule:nonzero;fill:rgb(0%,43.529412%,76.47059%);fill-opacity:1;" d="M 14.726562 4.125 C 14.800781 4.132812 14.824219 4.148438 14.878906 4.207031 C 15.621094 5.242188 15.914062 6.519531 15.714844 7.773438 C 15.539062 8.730469 15.101562 9.566406 14.433594 10.265625 C 14.40625 10.292969 14.375 10.324219 14.347656 10.355469 C 13.800781 10.929688 13.042969 11.316406 12.285156 11.519531 C 12.257812 11.527344 12.257812 11.527344 12.234375 11.535156 C 11.863281 11.628906 11.492188 11.660156 11.109375 11.660156 C 11.066406 11.660156 11.023438 11.660156 10.976562 11.660156 C 10.859375 11.660156 10.742188 11.65625 10.625 11.65625 C 10.5 11.65625 10.375 11.65625 10.25 11.65625 C 10.015625 11.65625 9.78125 11.65625 9.546875 11.65625 C 9.28125 11.65625 9.011719 11.652344 8.746094 11.652344 C 8.199219 11.652344 7.648438 11.652344 7.101562 11.648438 C 7.140625 11.535156 7.179688 11.421875 7.222656 11.304688 C 7.234375 11.265625 7.25 11.226562 7.261719 11.1875 C 7.375 10.867188 7.488281 10.550781 7.605469 10.230469 C 7.660156 10.085938 7.714844 9.9375 7.765625 9.792969 C 7.78125 9.746094 7.78125 9.746094 7.800781 9.699219 C 7.921875 9.367188 8.039062 9.035156 8.160156 8.703125 C 8.183594 8.644531 8.203125 8.582031 8.226562 8.523438 C 8.28125 8.371094 8.335938 8.21875 8.390625 8.066406 C 8.546875 7.640625 8.703125 7.210938 8.855469 6.78125 C 8.910156 6.640625 8.960938 6.5 9.011719 6.355469 C 9.058594 6.226562 9.105469 6.09375 9.152344 5.964844 C 9.171875 5.914062 9.1875 5.867188 9.207031 5.820312 C 9.230469 5.753906 9.253906 5.691406 9.277344 5.625 C 9.28125 5.605469 9.289062 5.585938 9.296875 5.566406 C 9.328125 5.484375 9.359375 5.40625 9.398438 5.324219 C 10.09375 5.324219 10.785156 5.324219 11.5 5.324219 C 11.453125 5.488281 11.402344 5.648438 11.34375 5.804688 C 11.335938 5.828125 11.328125 5.847656 11.320312 5.871094 C 11.292969 5.945312 11.265625 6.015625 11.242188 6.085938 C 11.222656 6.140625 11.203125 6.191406 11.183594 6.242188 C 11.144531 6.351562 11.105469 6.464844 11.0625 6.574219 C 11 6.753906 10.933594 6.933594 10.871094 7.109375 C 10.851562 7.15625 10.851562 7.15625 10.835938 7.203125 C 10.824219 7.234375 10.8125 7.265625 10.800781 7.296875 C 10.628906 7.777344 10.453125 8.261719 10.277344 8.746094 C 10.261719 8.792969 10.242188 8.835938 10.226562 8.882812 C 10.128906 9.15625 10.027344 9.429688 9.925781 9.699219 C 10.105469 9.695312 10.289062 9.695312 10.46875 9.691406 C 10.53125 9.691406 10.59375 9.6875 10.65625 9.6875 C 11.105469 9.679688 11.105469 9.679688 11.554688 9.65625 C 11.621094 9.648438 11.6875 9.652344 11.757812 9.652344 C 12.441406 9.65625 13.222656 9.359375 13.742188 8.917969 C 13.800781 8.875 13.800781 8.875 13.875 8.875 C 13.878906 8.859375 13.886719 8.847656 13.890625 8.832031 C 13.9375 8.753906 14 8.722656 14.074219 8.675781 C 14.167969 8.589844 14.230469 8.503906 14.300781 8.398438 C 14.394531 8.277344 14.394531 8.277344 14.449219 8.226562 C 14.464844 8.226562 14.484375 8.226562 14.5 8.226562 C 14.503906 8.210938 14.503906 8.199219 14.507812 8.183594 C 14.53125 8.109375 14.570312 8.058594 14.613281 7.996094 C 14.742188 7.808594 14.832031 7.605469 14.925781 7.398438 C 14.933594 7.382812 14.9375 7.367188 14.945312 7.351562 C 14.980469 7.269531 15.015625 7.1875 15.042969 7.105469 C 15.046875 7.085938 15.054688 7.066406 15.0625 7.046875 C 15.078125 7 15.078125 7 15.074219 6.949219 C 15.089844 6.949219 15.109375 6.949219 15.125 6.949219 C 15.117188 6.925781 15.109375 6.902344 15.101562 6.875 C 15.113281 6.832031 15.125 6.792969 15.136719 6.75 C 15.15625 6.675781 15.164062 6.605469 15.167969 6.527344 C 15.175781 6.460938 15.1875 6.394531 15.199219 6.324219 C 15.238281 6.089844 15.234375 5.859375 15.199219 5.625 C 15.195312 5.578125 15.191406 5.53125 15.1875 5.484375 C 15.179688 5.382812 15.15625 5.296875 15.125 5.199219 C 15.132812 5.140625 15.132812 5.140625 15.148438 5.101562 C 15.132812 5.101562 15.117188 5.101562 15.101562 5.101562 C 15.097656 5.078125 15.097656 5.050781 15.09375 5.027344 C 15.078125 4.925781 15.042969 4.839844 15.003906 4.746094 C 14.972656 4.667969 14.941406 4.585938 14.910156 4.507812 C 14.898438 4.480469 14.890625 4.453125 14.878906 4.425781 C 14.859375 4.375 14.839844 4.320312 14.824219 4.265625 C 14.808594 4.195312 14.808594 4.195312 14.75 4.175781 C 14.742188 4.160156 14.734375 4.140625 14.726562 4.125 Z M 14.726562 4.125 "/>
</g>
</svg>
