<?xml version="1.0" encoding="UTF-8"?>
<svg xmlns="http://www.w3.org/2000/svg" xmlns:xlink="http://www.w3.org/1999/xlink" width="161px" height="42px" viewBox="0 0 161 42" version="1.1">
<g id="surface1">
<path style=" stroke:none;fill-rule:nonzero;fill:rgb(0%,54.509807%,83.529413%);fill-opacity:1;" d="M 17.523438 10.679688 C 17.835938 10.679688 18.148438 10.679688 18.457031 10.679688 C 19.1875 10.683594 19.917969 10.683594 20.648438 10.6875 C 21.480469 10.691406 22.3125 10.695312 23.144531 10.695312 C 24.851562 10.699219 26.558594 10.707031 28.265625 10.714844 C 28.140625 11.320312 28.007812 11.910156 27.796875 12.492188 C 27.753906 12.613281 27.710938 12.734375 27.664062 12.855469 C 27.617188 12.984375 27.570312 13.113281 27.523438 13.242188 C 27.472656 13.382812 27.421875 13.519531 27.371094 13.660156 C 27.234375 14.035156 27.097656 14.410156 26.960938 14.785156 C 26.816406 15.179688 26.671875 15.578125 26.527344 15.976562 C 26.347656 16.472656 26.167969 16.964844 25.988281 17.460938 C 25.574219 18.59375 25.164062 19.730469 24.757812 20.863281 C 24.699219 21.015625 24.644531 21.167969 24.589844 21.328125 C 24.480469 21.632812 24.367188 21.9375 24.257812 22.242188 C 23.230469 25.097656 22.191406 27.945312 21.140625 30.792969 C 18.949219 30.792969 16.757812 30.792969 14.503906 30.792969 C 14.585938 30.285156 14.660156 29.902344 14.828125 29.429688 C 14.871094 29.3125 14.914062 29.195312 14.957031 29.070312 C 15.003906 28.945312 15.050781 28.816406 15.097656 28.683594 C 15.144531 28.546875 15.195312 28.414062 15.242188 28.273438 C 15.402344 27.828125 15.5625 27.378906 15.722656 26.933594 C 15.804688 26.703125 15.886719 26.472656 15.972656 26.242188 C 17.0625 23.195312 18.175781 20.15625 19.296875 17.121094 C 18.660156 17.109375 18.023438 17.105469 17.386719 17.101562 C 17.171875 17.097656 16.957031 17.09375 16.742188 17.09375 C 15.070312 17.066406 13.53125 17.144531 12.019531 17.945312 C 11.9375 17.988281 11.855469 18.03125 11.769531 18.074219 C 9.769531 19.144531 8.363281 20.875 7.6875 23.039062 C 7.621094 23.28125 7.554688 23.527344 7.496094 23.769531 C 7.460938 23.914062 7.460938 23.914062 7.425781 24.0625 C 7.070312 26.308594 7.574219 28.550781 8.847656 30.421875 C 10.175781 32.203125 12.0625 33.460938 14.257812 33.871094 C 15.046875 33.984375 15.824219 34.011719 16.621094 34.011719 C 16.804688 34.015625 16.804688 34.015625 16.988281 34.015625 C 17.394531 34.015625 17.800781 34.019531 18.207031 34.019531 C 18.5 34.019531 18.792969 34.023438 19.082031 34.023438 C 19.875 34.027344 20.664062 34.027344 21.457031 34.03125 C 22.199219 34.035156 22.941406 34.035156 23.6875 34.039062 C 25.15625 34.046875 26.628906 34.050781 28.101562 34.054688 C 29.53125 34.0625 30.957031 34.066406 32.386719 34.070312 C 32.476562 34.070312 32.5625 34.070312 32.65625 34.074219 C 33.097656 34.074219 33.539062 34.074219 33.980469 34.078125 C 37.648438 34.089844 41.316406 34.105469 44.980469 34.117188 C 45.195312 34.542969 45.410156 34.96875 45.621094 35.398438 C 45.730469 35.613281 45.835938 35.824219 45.941406 36.039062 C 47.929688 40.019531 47.929688 40.019531 47.929688 40.277344 C 43.628906 40.285156 39.324219 40.289062 35.019531 40.292969 C 34.511719 40.296875 34.003906 40.296875 33.496094 40.296875 C 33.34375 40.296875 33.34375 40.296875 33.1875 40.296875 C 31.550781 40.296875 29.914062 40.300781 28.277344 40.304688 C 26.59375 40.308594 24.914062 40.308594 23.230469 40.308594 C 22.195312 40.3125 21.160156 40.3125 20.121094 40.316406 C 19.410156 40.316406 18.699219 40.316406 17.984375 40.316406 C 17.578125 40.316406 17.167969 40.316406 16.757812 40.320312 C 12.820312 40.335938 9.351562 39.527344 6.269531 36.949219 C 6.148438 36.851562 6.027344 36.753906 5.90625 36.652344 C 3.105469 34.226562 1.308594 30.671875 0.984375 26.972656 C 0.773438 22.796875 1.804688 18.925781 4.601562 15.75 C 4.785156 15.550781 4.972656 15.347656 5.160156 15.148438 C 5.246094 15.058594 5.332031 14.964844 5.417969 14.871094 C 6.96875 13.226562 8.9375 12.148438 11.054688 11.417969 C 11.132812 11.386719 11.214844 11.359375 11.296875 11.328125 C 13.347656 10.664062 15.394531 10.664062 17.523438 10.679688 Z M 17.523438 10.679688 "/>
<path style=" stroke:none;fill-rule:nonzero;fill:rgb(0%,54.509807%,83.529413%);fill-opacity:1;" d="M 3.074219 1.230469 C 7.375 1.222656 11.679688 1.214844 15.984375 1.210938 C 16.492188 1.210938 17 1.210938 17.507812 1.210938 C 17.660156 1.210938 17.660156 1.210938 17.816406 1.210938 C 19.453125 1.210938 21.089844 1.207031 22.726562 1.203125 C 24.410156 1.199219 26.089844 1.199219 27.773438 1.195312 C 28.808594 1.195312 29.84375 1.195312 30.882812 1.191406 C 31.59375 1.191406 32.304688 1.1875 33.019531 1.191406 C 33.425781 1.191406 33.835938 1.1875 34.246094 1.1875 C 38.179688 1.171875 41.65625 1.976562 44.734375 4.558594 C 44.859375 4.660156 44.980469 4.761719 45.105469 4.867188 C 47.890625 7.273438 49.621094 10.757812 50.019531 14.410156 C 50.21875 18.546875 49.335938 22.449219 46.539062 25.625 C 46.351562 25.832031 46.15625 26.03125 45.964844 26.234375 C 45.863281 26.34375 45.761719 26.457031 45.660156 26.570312 C 43.25 29.121094 39.636719 30.714844 36.136719 30.824219 C 35.285156 30.839844 34.429688 30.832031 33.574219 30.828125 C 33.261719 30.828125 32.945312 30.828125 32.632812 30.828125 C 31.898438 30.824219 31.160156 30.820312 30.425781 30.820312 C 29.585938 30.8125 28.746094 30.8125 27.90625 30.808594 C 26.183594 30.804688 24.460938 30.800781 22.738281 30.792969 C 22.863281 30.179688 22.996094 29.585938 23.214844 29 C 23.261719 28.878906 23.308594 28.753906 23.355469 28.628906 C 23.402344 28.5 23.453125 28.367188 23.5 28.234375 C 23.554688 28.09375 23.605469 27.957031 23.65625 27.8125 C 23.796875 27.4375 23.9375 27.058594 24.078125 26.683594 C 24.316406 26.046875 24.550781 25.410156 24.785156 24.773438 C 24.847656 24.609375 24.90625 24.449219 24.964844 24.289062 C 25.511719 22.8125 26.039062 21.335938 26.5625 19.851562 C 27.636719 16.796875 28.753906 13.757812 29.863281 10.714844 C 32.054688 10.714844 34.246094 10.714844 36.5 10.714844 C 36.363281 11.683594 36.363281 11.683594 36.226562 12.058594 C 36.195312 12.144531 36.164062 12.230469 36.128906 12.320312 C 36.097656 12.410156 36.0625 12.503906 36.027344 12.597656 C 35.992188 12.695312 35.953125 12.796875 35.917969 12.898438 C 35.792969 13.230469 35.671875 13.5625 35.550781 13.894531 C 35.417969 14.253906 35.285156 14.609375 35.15625 14.96875 C 35.0625 15.222656 34.96875 15.480469 34.875 15.738281 C 34.484375 16.800781 34.097656 17.867188 33.710938 18.933594 C 33.683594 19.015625 33.652344 19.097656 33.621094 19.183594 C 33.386719 19.832031 33.152344 20.484375 32.917969 21.136719 C 32.726562 21.671875 32.53125 22.207031 32.339844 22.746094 C 32.289062 22.882812 32.238281 23.019531 32.1875 23.164062 C 32.144531 23.289062 32.097656 23.414062 32.050781 23.542969 C 32.011719 23.652344 31.972656 23.761719 31.929688 23.875 C 31.832031 24.140625 31.832031 24.140625 31.707031 24.386719 C 32.355469 24.398438 33.007812 24.410156 33.65625 24.414062 C 33.875 24.417969 34.09375 24.421875 34.316406 24.425781 C 36.929688 24.472656 39.226562 23.929688 41.171875 22.070312 C 42.816406 20.421875 43.652344 18.28125 43.683594 15.964844 C 43.671875 13.851562 42.933594 11.9375 41.539062 10.347656 C 41.46875 10.261719 41.398438 10.179688 41.324219 10.09375 C 39.742188 8.378906 37.496094 7.609375 35.214844 7.5 C 34.347656 7.472656 33.480469 7.476562 32.617188 7.472656 C 32.324219 7.472656 32.035156 7.472656 31.742188 7.46875 C 30.957031 7.46875 30.171875 7.464844 29.386719 7.464844 C 28.648438 7.460938 27.910156 7.457031 27.171875 7.457031 C 25.710938 7.449219 24.25 7.445312 22.785156 7.441406 C 21.367188 7.4375 19.949219 7.433594 18.53125 7.429688 C 18.398438 7.429688 18.398438 7.429688 18.265625 7.429688 C 17.824219 7.425781 17.382812 7.425781 16.945312 7.421875 C 13.304688 7.410156 9.664062 7.398438 6.023438 7.390625 C 5.964844 7.269531 5.964844 7.269531 5.90625 7.144531 C 5.730469 6.773438 5.554688 6.40625 5.375 6.035156 C 5.316406 5.90625 5.253906 5.78125 5.191406 5.648438 C 4.734375 4.691406 4.265625 3.734375 3.785156 2.785156 C 3.648438 2.515625 3.511719 2.242188 3.375 1.96875 C 3.316406 1.851562 3.257812 1.738281 3.199219 1.617188 C 3.074219 1.355469 3.074219 1.355469 3.074219 1.230469 Z M 3.074219 1.230469 "/>
<path style=" stroke:none;fill-rule:nonzero;fill:rgb(0.392157%,43.529412%,76.47059%);fill-opacity:1;" d="M 17.523438 10.679688 C 17.835938 10.679688 18.148438 10.679688 18.457031 10.679688 C 19.1875 10.683594 19.917969 10.683594 20.648438 10.6875 C 21.480469 10.691406 22.3125 10.695312 23.144531 10.695312 C 24.851562 10.699219 26.558594 10.707031 28.265625 10.714844 C 28.140625 11.320312 28.007812 11.910156 27.796875 12.492188 C 27.753906 12.613281 27.710938 12.734375 27.664062 12.855469 C 27.617188 12.984375 27.570312 13.113281 27.523438 13.242188 C 27.472656 13.382812 27.421875 13.519531 27.371094 13.660156 C 27.234375 14.035156 27.097656 14.410156 26.960938 14.785156 C 26.816406 15.179688 26.671875 15.578125 26.527344 15.976562 C 26.347656 16.472656 26.167969 16.964844 25.988281 17.460938 C 25.574219 18.59375 25.164062 19.730469 24.757812 20.863281 C 24.699219 21.015625 24.644531 21.167969 24.589844 21.328125 C 24.480469 21.632812 24.367188 21.9375 24.257812 22.242188 C 23.230469 25.097656 22.191406 27.945312 21.140625 30.792969 C 18.949219 30.792969 16.757812 30.792969 14.503906 30.792969 C 14.585938 30.285156 14.660156 29.902344 14.828125 29.429688 C 14.871094 29.3125 14.914062 29.195312 14.957031 29.070312 C 15.003906 28.945312 15.050781 28.816406 15.097656 28.683594 C 15.144531 28.546875 15.195312 28.414062 15.242188 28.273438 C 15.402344 27.828125 15.5625 27.378906 15.722656 26.933594 C 15.804688 26.703125 15.886719 26.472656 15.972656 26.242188 C 17.0625 23.195312 18.175781 20.15625 19.296875 17.121094 C 18.472656 17.109375 17.652344 17.105469 16.832031 17.101562 C 16.550781 17.097656 16.273438 17.09375 15.996094 17.09375 C 13.601562 17.066406 11.550781 17.257812 9.339844 18.230469 C 9.203125 18.285156 9.070312 18.34375 8.929688 18.402344 C 7.859375 18.925781 7.050781 19.707031 6.214844 20.539062 C 6.097656 20.652344 5.984375 20.765625 5.867188 20.878906 C 5.109375 21.652344 4.554688 22.445312 4.054688 23.402344 C 4.003906 23.5 3.953125 23.597656 3.898438 23.695312 C 3.628906 24.199219 3.460938 24.695312 3.316406 25.25 C 3.273438 25.371094 3.230469 25.492188 3.1875 25.617188 C 3.058594 26.027344 3.003906 26.425781 2.949219 26.851562 C 2.929688 26.945312 2.90625 27.042969 2.886719 27.140625 C 2.777344 27.734375 2.804688 28.335938 2.804688 28.9375 C 2.800781 29.070312 2.800781 29.199219 2.800781 29.335938 C 2.796875 30 2.820312 30.539062 3.074219 31.160156 C 3.027344 31.453125 3.027344 31.453125 2.949219 31.652344 C 3.03125 31.652344 3.113281 31.652344 3.195312 31.652344 C 3.207031 31.757812 3.222656 31.863281 3.234375 31.96875 C 3.347656 32.539062 3.578125 33.027344 3.824219 33.546875 C 3.871094 33.648438 3.917969 33.746094 3.964844 33.847656 C 4.007812 33.941406 4.050781 34.03125 4.097656 34.128906 C 4.125 34.207031 4.152344 34.285156 4.179688 34.363281 C 4.136719 34.445312 4.097656 34.527344 4.054688 34.609375 C 1.570312 31.480469 0.605469 27.492188 1.039062 23.539062 C 1.484375 20.296875 2.933594 17.515625 5.160156 15.148438 C 5.246094 15.058594 5.332031 14.964844 5.417969 14.871094 C 6.96875 13.226562 8.9375 12.148438 11.054688 11.417969 C 11.132812 11.386719 11.214844 11.359375 11.296875 11.328125 C 13.347656 10.664062 15.394531 10.664062 17.523438 10.679688 Z M 17.523438 10.679688 "/>
<path style=" stroke:none;fill-rule:nonzero;fill:rgb(0%,43.529412%,76.47059%);fill-opacity:1;" d="M 46.824219 7.019531 C 47.367188 7.203125 47.574219 7.613281 47.847656 8.082031 C 47.894531 8.164062 47.941406 8.246094 47.992188 8.332031 C 48.800781 9.742188 49.402344 11.222656 49.773438 12.808594 C 49.800781 12.925781 49.832031 13.042969 49.859375 13.164062 C 50.609375 17.0625 49.6875 21.011719 47.570312 24.308594 C 47.089844 25.003906 46.550781 25.625 45.964844 26.234375 C 45.8125 26.398438 45.8125 26.398438 45.660156 26.570312 C 43.25 29.121094 39.636719 30.714844 36.136719 30.824219 C 35.285156 30.839844 34.429688 30.832031 33.574219 30.828125 C 33.261719 30.828125 32.945312 30.828125 32.632812 30.828125 C 31.898438 30.824219 31.160156 30.820312 30.425781 30.820312 C 29.585938 30.8125 28.746094 30.8125 27.90625 30.808594 C 26.183594 30.804688 24.460938 30.800781 22.738281 30.792969 C 22.863281 30.179688 22.996094 29.585938 23.214844 29 C 23.261719 28.878906 23.308594 28.753906 23.355469 28.628906 C 23.402344 28.5 23.453125 28.367188 23.5 28.234375 C 23.554688 28.09375 23.605469 27.957031 23.65625 27.8125 C 23.796875 27.4375 23.9375 27.058594 24.078125 26.683594 C 24.316406 26.046875 24.550781 25.410156 24.785156 24.773438 C 24.847656 24.609375 24.90625 24.449219 24.964844 24.289062 C 25.511719 22.8125 26.039062 21.335938 26.5625 19.851562 C 27.636719 16.796875 28.753906 13.757812 29.863281 10.714844 C 32.054688 10.714844 34.246094 10.714844 36.5 10.714844 C 36.363281 11.683594 36.363281 11.683594 36.226562 12.058594 C 36.195312 12.144531 36.164062 12.230469 36.128906 12.320312 C 36.097656 12.410156 36.0625 12.503906 36.027344 12.597656 C 35.992188 12.695312 35.953125 12.796875 35.917969 12.898438 C 35.792969 13.230469 35.671875 13.5625 35.550781 13.894531 C 35.417969 14.253906 35.285156 14.609375 35.15625 14.96875 C 35.0625 15.222656 34.96875 15.480469 34.875 15.738281 C 34.484375 16.800781 34.097656 17.867188 33.710938 18.933594 C 33.683594 19.015625 33.652344 19.097656 33.621094 19.183594 C 33.386719 19.832031 33.152344 20.484375 32.917969 21.136719 C 32.726562 21.671875 32.53125 22.207031 32.339844 22.746094 C 32.289062 22.882812 32.238281 23.019531 32.1875 23.164062 C 32.144531 23.289062 32.097656 23.414062 32.050781 23.542969 C 32.011719 23.652344 31.972656 23.761719 31.929688 23.875 C 31.832031 24.140625 31.832031 24.140625 31.707031 24.386719 C 32.550781 24.398438 33.390625 24.402344 34.234375 24.40625 C 34.519531 24.410156 34.804688 24.410156 35.089844 24.414062 C 38.320312 24.449219 41.296875 24.007812 43.886719 21.867188 C 44.121094 21.675781 44.121094 21.675781 44.511719 21.4375 C 44.914062 21.144531 45.15625 20.824219 45.4375 20.421875 C 45.597656 20.199219 45.597656 20.199219 45.84375 19.953125 C 45.882812 19.871094 45.921875 19.789062 45.964844 19.707031 C 46.046875 19.707031 46.128906 19.707031 46.210938 19.707031 C 46.222656 19.640625 46.234375 19.574219 46.246094 19.503906 C 46.355469 19.136719 46.539062 18.847656 46.742188 18.519531 C 47.40625 17.457031 47.40625 17.457031 47.683594 16.257812 C 47.765625 16.257812 47.847656 16.257812 47.929688 16.257812 C 47.890625 16.136719 47.851562 16.015625 47.808594 15.886719 C 47.886719 15.601562 47.96875 15.3125 48.054688 15.027344 C 48.269531 13.851562 48.375 12.636719 48.175781 11.453125 C 48.160156 11.273438 48.144531 11.089844 48.132812 10.90625 C 48.078125 10.394531 47.933594 9.945312 47.75 9.464844 C 47.683594 9.238281 47.683594 9.238281 47.808594 8.992188 C 47.6875 8.929688 47.6875 8.929688 47.5625 8.867188 C 47.449219 8.628906 47.34375 8.386719 47.246094 8.144531 C 47.167969 7.945312 47.167969 7.945312 47.085938 7.746094 C 46.992188 7.503906 46.90625 7.265625 46.824219 7.019531 Z M 46.824219 7.019531 "/>
<path style=" stroke:none;fill-rule:nonzero;fill:rgb(100%,100%,100%);fill-opacity:1;" d="M 68.703125 8.992188 C 69.957031 8.992188 71.214844 8.992188 72.511719 8.992188 C 72.511719 9.519531 72.511719 10.046875 72.511719 10.59375 C 75.917969 10.59375 79.324219 10.59375 82.835938 10.59375 C 82.859375 13.800781 82.859375 13.800781 82.863281 15.171875 C 82.867188 16.109375 82.875 17.042969 82.882812 17.976562 C 82.886719 18.730469 82.890625 19.484375 82.894531 20.238281 C 82.894531 20.527344 82.898438 20.8125 82.898438 21.101562 C 82.90625 21.503906 82.90625 21.90625 82.90625 22.308594 C 82.90625 22.484375 82.90625 22.484375 82.910156 22.667969 C 82.90625 23.519531 82.683594 24.160156 82.21875 24.878906 C 81.9375 25.15625 81.9375 25.15625 81.660156 25.320312 C 81.570312 25.375 81.476562 25.429688 81.382812 25.488281 C 80.859375 25.742188 80.398438 25.757812 79.824219 25.757812 C 79.703125 25.757812 79.703125 25.757812 79.582031 25.757812 C 79.320312 25.757812 79.0625 25.753906 78.800781 25.753906 C 78.621094 25.753906 78.4375 25.753906 78.257812 25.753906 C 77.78125 25.753906 77.304688 25.75 76.828125 25.75 C 76.34375 25.75 75.855469 25.75 75.371094 25.746094 C 74.417969 25.746094 73.464844 25.746094 72.511719 25.742188 C 72.511719 26.839844 72.511719 27.9375 72.511719 29.066406 C 71.253906 29.066406 69.996094 29.066406 68.703125 29.066406 C 68.703125 27.96875 68.703125 26.871094 68.703125 25.742188 C 65.292969 25.742188 61.886719 25.742188 58.378906 25.742188 C 58.378906 20.742188 58.378906 15.742188 58.378906 10.59375 C 61.785156 10.59375 65.191406 10.59375 68.703125 10.59375 C 68.703125 10.0625 68.703125 9.535156 68.703125 8.992188 Z M 62.3125 13.300781 C 62.3125 16.511719 62.3125 19.722656 62.3125 23.03125 C 64.417969 23.03125 66.527344 23.03125 68.703125 23.03125 C 68.703125 19.820312 68.703125 16.609375 68.703125 13.300781 C 66.59375 13.300781 64.484375 13.300781 62.3125 13.300781 Z M 72.511719 13.300781 C 72.511719 16.511719 72.511719 19.722656 72.511719 23.03125 C 73.496094 23.042969 74.476562 23.050781 75.492188 23.0625 C 75.957031 23.070312 75.957031 23.070312 76.429688 23.078125 C 76.675781 23.078125 76.921875 23.078125 77.167969 23.082031 C 77.359375 23.085938 77.359375 23.085938 77.554688 23.089844 C 77.675781 23.089844 77.800781 23.089844 77.925781 23.089844 C 78.082031 23.089844 78.082031 23.089844 78.246094 23.089844 C 78.652344 23.007812 78.785156 22.878906 79.023438 22.539062 C 79.070312 22.21875 79.085938 21.953125 79.082031 21.636719 C 79.082031 21.546875 79.082031 21.457031 79.082031 21.363281 C 79.082031 21.066406 79.078125 20.769531 79.074219 20.472656 C 79.074219 20.265625 79.070312 20.058594 79.070312 19.851562 C 79.070312 19.308594 79.0625 18.765625 79.058594 18.222656 C 79.054688 17.570312 79.050781 16.921875 79.046875 16.269531 C 79.042969 15.28125 79.035156 14.292969 79.023438 13.300781 C 76.875 13.300781 74.726562 13.300781 72.511719 13.300781 Z M 72.511719 13.300781 "/>
<path style=" stroke:none;fill-rule:nonzero;fill:rgb(100%,100%,100%);fill-opacity:1;" d="M 148.957031 8.867188 C 150.132812 8.867188 151.308594 8.867188 152.519531 8.867188 C 152.519531 9.113281 152.519531 9.355469 152.519531 9.605469 C 154.667969 9.605469 156.820312 9.605469 159.035156 9.605469 C 159.035156 10.703125 159.035156 11.800781 159.035156 12.933594 C 159.195312 12.933594 159.359375 12.933594 159.523438 12.933594 C 159.523438 13.664062 159.523438 14.394531 159.523438 15.148438 C 159.363281 15.148438 159.199219 15.148438 159.035156 15.148438 C 159.039062 15.28125 159.046875 15.410156 159.050781 15.546875 C 159.105469 17.3125 159.105469 17.3125 158.542969 18.105469 C 157.824219 18.804688 157.160156 18.878906 156.203125 18.867188 C 156.097656 18.867188 155.992188 18.867188 155.882812 18.867188 C 155.550781 18.867188 155.214844 18.863281 154.878906 18.859375 C 154.648438 18.859375 154.421875 18.859375 154.195312 18.855469 C 153.636719 18.855469 153.078125 18.851562 152.519531 18.84375 C 152.519531 19.25 152.519531 19.65625 152.519531 20.078125 C 154.628906 20.078125 156.738281 20.078125 158.910156 20.078125 C 158.910156 20.808594 158.910156 21.539062 158.910156 22.292969 C 156.800781 22.292969 154.691406 22.292969 152.519531 22.292969 C 152.519531 22.617188 152.519531 22.945312 152.519531 23.277344 C 154.75 23.277344 156.980469 23.277344 159.28125 23.277344 C 159.28125 24.011719 159.28125 24.742188 159.28125 25.496094 C 157.046875 25.496094 154.816406 25.496094 152.519531 25.496094 C 152.519531 25.78125 152.519531 26.066406 152.519531 26.359375 C 151.34375 26.359375 150.167969 26.359375 148.957031 26.359375 C 148.957031 26.074219 148.957031 25.789062 148.957031 25.496094 C 146.804688 25.496094 144.65625 25.496094 142.441406 25.496094 C 142.441406 24.765625 142.441406 24.03125 142.441406 23.277344 C 144.589844 23.277344 146.742188 23.277344 148.957031 23.277344 C 148.957031 22.953125 148.957031 22.628906 148.957031 22.292969 C 146.929688 22.292969 144.898438 22.292969 142.8125 22.292969 C 142.8125 21.5625 142.8125 20.828125 142.8125 20.078125 C 144.839844 20.078125 146.867188 20.078125 148.957031 20.078125 C 148.957031 19.667969 148.957031 19.261719 148.957031 18.84375 C 146.96875 18.84375 144.980469 18.84375 142.933594 18.84375 C 142.933594 18.113281 142.933594 17.382812 142.933594 16.628906 C 144.921875 16.628906 146.90625 16.628906 148.957031 16.628906 C 148.957031 16.140625 148.957031 15.652344 148.957031 15.148438 C 146.765625 15.148438 144.574219 15.148438 142.320312 15.148438 C 142.320312 14.417969 142.320312 13.6875 142.320312 12.933594 C 144.507812 12.933594 146.699219 12.933594 148.957031 12.933594 C 148.957031 12.566406 148.957031 12.199219 148.957031 11.824219 C 146.96875 11.824219 144.980469 11.824219 142.933594 11.824219 C 142.933594 11.09375 142.933594 10.359375 142.933594 9.605469 C 144.921875 9.605469 146.90625 9.605469 148.957031 9.605469 C 148.957031 9.363281 148.957031 9.121094 148.957031 8.867188 Z M 152.519531 11.824219 C 152.519531 12.191406 152.519531 12.554688 152.519531 12.933594 C 153.574219 12.933594 154.628906 12.933594 155.714844 12.933594 C 155.714844 12.566406 155.714844 12.199219 155.714844 11.824219 C 154.660156 11.824219 153.605469 11.824219 152.519531 11.824219 Z M 152.519531 15.148438 C 152.519531 15.636719 152.519531 16.125 152.519531 16.628906 C 152.984375 16.632812 153.445312 16.640625 153.910156 16.644531 C 154.042969 16.644531 154.171875 16.648438 154.308594 16.648438 C 154.5 16.652344 154.5 16.652344 154.691406 16.652344 C 154.867188 16.652344 154.867188 16.652344 155.046875 16.65625 C 155.378906 16.648438 155.378906 16.648438 155.714844 16.382812 C 155.714844 15.976562 155.714844 15.566406 155.714844 15.148438 C 154.660156 15.148438 153.605469 15.148438 152.519531 15.148438 Z M 152.519531 15.148438 "/>
<path style=" stroke:none;fill-rule:nonzero;fill:rgb(100%,100%,100%);fill-opacity:1;" d="M 94.757812 8.992188 C 96.015625 8.992188 97.269531 8.992188 98.566406 8.992188 C 98.566406 10.453125 98.566406 11.917969 98.566406 13.425781 C 101.769531 13.425781 104.972656 13.425781 108.277344 13.425781 C 108.277344 14.402344 108.277344 15.375 108.277344 16.382812 C 107.976562 16.378906 107.675781 16.375 107.367188 16.367188 C 106.375 16.355469 105.382812 16.351562 104.390625 16.351562 C 103.789062 16.351562 103.1875 16.347656 102.585938 16.339844 C 102.003906 16.332031 101.425781 16.328125 100.84375 16.332031 C 100.625 16.332031 100.402344 16.332031 100.179688 16.324219 C 99.03125 16.257812 99.03125 16.257812 97.992188 16.65625 C 97.609375 17.050781 97.339844 17.492188 97.089844 17.980469 C 97.234375 17.976562 97.234375 17.976562 97.382812 17.96875 C 99.976562 17.871094 99.976562 17.871094 100.597656 18.386719 C 100.90625 18.769531 101.148438 19.15625 101.394531 19.582031 C 101.589844 19.855469 101.800781 20.113281 102.007812 20.375 C 102.109375 20.511719 102.214844 20.648438 102.316406 20.78125 C 102.613281 21.171875 102.910156 21.558594 103.207031 21.945312 C 103.253906 22.011719 103.304688 22.074219 103.355469 22.140625 C 103.878906 22.824219 104.40625 23.503906 104.9375 24.183594 C 105.449219 24.847656 105.964844 25.511719 106.472656 26.179688 C 106.734375 26.519531 106.996094 26.855469 107.257812 27.191406 C 107.339844 27.292969 107.417969 27.394531 107.5 27.5 C 107.65625 27.699219 107.8125 27.902344 107.972656 28.105469 C 108.078125 28.242188 108.078125 28.242188 108.1875 28.378906 C 108.253906 28.460938 108.316406 28.542969 108.382812 28.628906 C 108.519531 28.820312 108.519531 28.820312 108.519531 28.945312 C 107.863281 28.984375 107.203125 29.011719 106.542969 29.03125 C 106.316406 29.039062 106.09375 29.050781 105.867188 29.066406 C 104.066406 29.175781 104.066406 29.175781 103.515625 28.800781 C 103.078125 28.375 102.796875 27.867188 102.5 27.34375 C 102.359375 27.152344 102.214844 26.964844 102.0625 26.78125 C 102 26.695312 101.933594 26.613281 101.867188 26.527344 C 101.800781 26.441406 101.738281 26.359375 101.667969 26.273438 C 101.597656 26.179688 101.527344 26.089844 101.453125 25.992188 C 101.226562 25.703125 101.003906 25.414062 100.777344 25.125 C 99.253906 23.164062 97.738281 21.191406 96.230469 19.214844 C 95.871094 19.558594 95.574219 19.914062 95.277344 20.316406 C 94.753906 21.023438 94.222656 21.722656 93.6875 22.425781 C 92.976562 23.359375 92.273438 24.300781 91.582031 25.25 C 91 26.042969 90.402344 26.820312 89.792969 27.59375 C 89.726562 27.679688 89.660156 27.765625 89.589844 27.855469 C 89.53125 27.925781 89.472656 28 89.414062 28.078125 C 89.207031 28.339844 89.207031 28.339844 89.027344 28.722656 C 88.734375 29.066406 88.734375 29.066406 88.503906 29.132812 C 88.214844 29.152344 87.929688 29.152344 87.636719 29.140625 C 87.53125 29.136719 87.425781 29.136719 87.316406 29.136719 C 86.980469 29.132812 86.644531 29.121094 86.308594 29.113281 C 86.078125 29.109375 85.851562 29.105469 85.621094 29.105469 C 85.0625 29.09375 84.5 29.082031 83.941406 29.066406 C 84.089844 28.65625 84.253906 28.332031 84.527344 27.988281 C 84.59375 27.902344 84.664062 27.816406 84.734375 27.726562 C 84.804688 27.636719 84.878906 27.546875 84.957031 27.449219 C 85.574219 26.664062 86.179688 25.875 86.769531 25.066406 C 87.402344 24.191406 88.058594 23.335938 88.722656 22.484375 C 89.238281 21.820312 89.746094 21.152344 90.246094 20.480469 C 90.78125 19.757812 91.324219 19.042969 91.867188 18.328125 C 91.953125 18.21875 92.035156 18.109375 92.121094 17.992188 C 92.203125 17.890625 92.28125 17.785156 92.363281 17.675781 C 92.433594 17.585938 92.503906 17.492188 92.578125 17.394531 C 92.808594 17.097656 93.046875 16.800781 93.28125 16.503906 C 90.199219 16.464844 87.117188 16.421875 83.941406 16.382812 C 83.941406 15.40625 83.941406 14.429688 83.941406 13.425781 C 87.511719 13.425781 91.078125 13.425781 94.757812 13.425781 C 94.757812 11.960938 94.757812 10.5 94.757812 8.992188 Z M 94.757812 8.992188 "/>
<path style=" stroke:none;fill-rule:nonzero;fill:rgb(100%,100%,100%);fill-opacity:1;" d="M 114.175781 8.867188 C 115.472656 8.867188 116.769531 8.867188 118.109375 8.867188 C 118.109375 11.183594 118.109375 13.5 118.109375 15.886719 C 118.511719 15.96875 118.917969 16.050781 119.335938 16.136719 C 119.335938 17.109375 119.335938 18.085938 119.335938 19.089844 C 118.972656 19.050781 118.605469 19.007812 118.230469 18.96875 C 118.191406 22.300781 118.148438 25.632812 118.109375 29.066406 C 116.808594 29.066406 115.511719 29.066406 114.175781 29.066406 C 114.175781 25.492188 114.175781 21.914062 114.175781 18.230469 C 113.769531 18.1875 113.363281 18.148438 112.945312 18.105469 C 112.945312 21.316406 112.945312 24.527344 112.945312 27.835938 C 111.808594 27.835938 110.675781 27.835938 109.503906 27.835938 C 109.503906 21.984375 109.503906 16.128906 109.503906 10.101562 C 110.640625 10.101562 111.777344 10.101562 112.945312 10.101562 C 112.945312 11.765625 112.945312 13.433594 112.945312 15.148438 C 113.351562 15.191406 113.757812 15.230469 114.175781 15.273438 C 114.175781 13.160156 114.175781 11.046875 114.175781 8.867188 Z M 114.175781 8.867188 "/>
<path style=" stroke:none;fill-rule:nonzero;fill:rgb(100%,100%,100%);fill-opacity:1;" d="M 119.582031 12.808594 C 124.328125 12.808594 129.074219 12.808594 133.960938 12.808594 C 133.972656 14.515625 133.980469 16.222656 133.992188 17.980469 C 133.996094 18.519531 134 19.058594 134.007812 19.613281 C 134.007812 20.273438 134.007812 20.273438 134.007812 20.582031 C 134.007812 20.796875 134.011719 21.011719 134.015625 21.226562 C 134.015625 21.550781 134.019531 21.878906 134.019531 22.207031 C 134.019531 22.300781 134.019531 22.394531 134.023438 22.492188 C 134.015625 23.296875 133.757812 23.921875 133.242188 24.535156 C 133.164062 24.601562 133.089844 24.667969 133.007812 24.734375 C 132.933594 24.800781 132.859375 24.867188 132.78125 24.9375 C 131.972656 25.457031 131.234375 25.550781 130.296875 25.539062 C 130.179688 25.539062 130.0625 25.539062 129.9375 25.539062 C 129.558594 25.539062 129.179688 25.535156 128.800781 25.53125 C 128.5625 25.53125 128.328125 25.53125 128.09375 25.53125 C 127.222656 25.527344 126.351562 25.523438 125.480469 25.519531 C 122.5625 25.507812 122.5625 25.507812 119.582031 25.496094 C 119.582031 21.308594 119.582031 17.121094 119.582031 12.808594 Z M 123.390625 15.394531 C 123.390625 16.207031 123.390625 17.023438 123.390625 17.859375 C 125.621094 17.859375 127.855469 17.859375 130.152344 17.859375 C 130.152344 17.046875 130.152344 16.234375 130.152344 15.394531 C 127.921875 15.394531 125.691406 15.394531 123.390625 15.394531 Z M 123.390625 20.445312 C 123.390625 21.257812 123.390625 22.070312 123.390625 22.910156 C 124.257812 22.921875 125.121094 22.929688 125.984375 22.9375 C 126.277344 22.9375 126.570312 22.941406 126.867188 22.945312 C 127.289062 22.953125 127.710938 22.953125 128.132812 22.957031 C 128.328125 22.960938 128.328125 22.960938 128.53125 22.964844 C 128.652344 22.964844 128.777344 22.964844 128.902344 22.964844 C 129.011719 22.964844 129.121094 22.96875 129.230469 22.96875 C 129.625 22.917969 129.625 22.917969 130.152344 22.417969 C 130.152344 21.765625 130.152344 21.117188 130.152344 20.445312 C 127.921875 20.445312 125.691406 20.445312 123.390625 20.445312 Z M 123.390625 20.445312 "/>
<path style=" stroke:none;fill-rule:nonzero;fill:rgb(100%,100%,100%);fill-opacity:1;" d="M 135.066406 9.359375 C 137.421875 9.359375 139.773438 9.359375 142.195312 9.359375 C 141.917969 10.609375 141.917969 10.609375 141.730469 11.160156 C 141.6875 11.285156 141.648438 11.40625 141.605469 11.535156 C 141.558594 11.664062 141.515625 11.792969 141.46875 11.925781 C 141.398438 12.128906 141.398438 12.128906 141.328125 12.335938 C 141.183594 12.761719 141.039062 13.191406 140.890625 13.617188 C 140.789062 13.910156 140.691406 14.199219 140.589844 14.492188 C 140.347656 15.203125 140.105469 15.917969 139.859375 16.628906 C 140.671875 16.628906 141.484375 16.628906 142.320312 16.628906 C 142.183594 17.398438 142 18.121094 141.738281 18.859375 C 141.558594 19.371094 141.390625 19.886719 141.226562 20.402344 C 141.136719 20.671875 141.042969 20.941406 140.945312 21.207031 C 140.359375 22.703125 140.359375 22.703125 140.484375 24.246094 C 140.851562 24.90625 141.320312 25.464844 141.847656 26 C 142.074219 26.234375 142.074219 26.234375 142.289062 26.550781 C 142.535156 26.875 142.535156 26.875 142.890625 26.929688 C 143.078125 26.929688 143.078125 26.929688 143.269531 26.929688 C 143.410156 26.929688 143.554688 26.933594 143.703125 26.933594 C 143.9375 26.933594 143.9375 26.933594 144.175781 26.933594 C 144.34375 26.933594 144.511719 26.933594 144.679688 26.9375 C 145.132812 26.9375 145.585938 26.9375 146.039062 26.9375 C 146.511719 26.9375 146.988281 26.941406 147.460938 26.941406 C 148.359375 26.949219 149.257812 26.949219 150.152344 26.949219 C 151.175781 26.949219 152.199219 26.953125 153.21875 26.957031 C 155.320312 26.96875 157.421875 26.972656 159.523438 26.972656 C 159.523438 27.664062 159.523438 28.355469 159.523438 29.066406 C 157.042969 29.097656 154.558594 29.121094 152.078125 29.136719 C 150.925781 29.144531 149.769531 29.152344 148.617188 29.167969 C 147.613281 29.183594 146.609375 29.191406 145.601562 29.195312 C 145.070312 29.195312 144.539062 29.199219 144.007812 29.210938 C 143.507812 29.21875 143.003906 29.222656 142.503906 29.21875 C 142.320312 29.222656 142.136719 29.222656 141.953125 29.230469 C 140.566406 29.265625 140.566406 29.265625 140.019531 28.753906 C 139.769531 28.417969 139.5625 28.085938 139.371094 27.710938 C 139.050781 28.160156 139.050781 28.160156 138.753906 29.066406 C 137.660156 29.066406 136.566406 29.066406 135.4375 29.066406 C 135.527344 28.445312 135.628906 27.90625 135.796875 27.308594 C 135.820312 27.222656 135.84375 27.136719 135.871094 27.050781 C 135.949219 26.773438 136.027344 26.496094 136.105469 26.21875 C 136.160156 26.023438 136.214844 25.828125 136.269531 25.632812 C 136.382812 25.226562 136.496094 24.824219 136.613281 24.417969 C 136.757812 23.898438 136.90625 23.378906 137.050781 22.855469 C 137.164062 22.457031 137.277344 22.054688 137.390625 21.65625 C 137.445312 21.464844 137.5 21.273438 137.554688 21.078125 C 137.628906 20.8125 137.703125 20.542969 137.78125 20.277344 C 137.824219 20.125 137.867188 19.972656 137.910156 19.816406 C 138.015625 19.460938 138.015625 19.460938 138.140625 19.214844 C 137.207031 19.214844 136.273438 19.214844 135.3125 19.214844 C 136.125 16.730469 137.003906 14.277344 137.894531 11.824219 C 136.960938 11.824219 136.027344 11.824219 135.066406 11.824219 C 135.066406 11.011719 135.066406 10.199219 135.066406 9.359375 Z M 135.066406 9.359375 "/>
<path style=" stroke:none;fill-rule:nonzero;fill:rgb(100%,100%,100%);fill-opacity:1;" d="M 119.582031 8.992188 C 124.328125 8.992188 129.074219 8.992188 133.960938 8.992188 C 133.960938 9.886719 133.960938 10.78125 133.960938 11.699219 C 129.214844 11.699219 124.472656 11.699219 119.582031 11.699219 C 119.582031 10.808594 119.582031 9.914062 119.582031 8.992188 Z M 119.582031 8.992188 "/>
<path style=" stroke:none;fill-rule:nonzero;fill:rgb(100%,100%,100%);fill-opacity:1;" d="M 119.335938 26.480469 C 124.121094 26.480469 128.90625 26.480469 133.839844 26.480469 C 133.839844 27.335938 133.839844 28.1875 133.839844 29.066406 C 129.054688 29.066406 124.265625 29.066406 119.335938 29.066406 C 119.335938 28.214844 119.335938 27.359375 119.335938 26.480469 Z M 119.335938 26.480469 "/>
<path style=" stroke:none;fill-rule:nonzero;fill:rgb(52.941179%,52.941179%,52.941179%);fill-opacity:1;" d="M 154.242188 32.761719 C 154.808594 32.761719 155.375 32.761719 155.960938 32.761719 C 156.640625 33.941406 157.292969 35.128906 157.925781 36.335938 C 157.96875 35.15625 158.007812 33.976562 158.050781 32.761719 C 158.496094 32.761719 158.941406 32.761719 159.402344 32.761719 C 159.402344 34.671875 159.402344 36.582031 159.402344 38.550781 C 158.835938 38.550781 158.265625 38.550781 157.683594 38.550781 C 157.03125 37.371094 156.382812 36.195312 155.714844 34.980469 C 155.675781 36.15625 155.632812 37.335938 155.59375 38.550781 C 155.144531 38.550781 154.699219 38.550781 154.242188 38.550781 C 154.242188 36.640625 154.242188 34.730469 154.242188 32.761719 Z M 154.242188 32.761719 "/>
<path style=" stroke:none;fill-rule:nonzero;fill:rgb(52.941179%,52.941179%,52.941179%);fill-opacity:1;" d="M 79.023438 32.761719 C 79.59375 32.761719 80.160156 32.761719 80.746094 32.761719 C 80.847656 32.949219 80.949219 33.132812 81.050781 33.324219 C 81.183594 33.570312 81.320312 33.816406 81.453125 34.0625 C 81.519531 34.183594 81.585938 34.308594 81.652344 34.433594 C 81.71875 34.550781 81.78125 34.671875 81.851562 34.796875 C 81.910156 34.902344 81.96875 35.011719 82.03125 35.125 C 82.253906 35.53125 82.484375 35.933594 82.710938 36.335938 C 82.753906 35.15625 82.792969 33.976562 82.835938 32.761719 C 83.28125 32.761719 83.726562 32.761719 84.1875 32.761719 C 84.1875 34.671875 84.1875 36.582031 84.1875 38.550781 C 83.621094 38.550781 83.050781 38.550781 82.464844 38.550781 C 82.285156 38.222656 82.285156 38.222656 82.097656 37.890625 C 81.980469 37.679688 81.863281 37.46875 81.746094 37.257812 C 81.664062 37.109375 81.582031 36.960938 81.5 36.816406 C 81.382812 36.605469 81.265625 36.394531 81.144531 36.183594 C 81.074219 36.054688 81.003906 35.925781 80.933594 35.796875 C 80.796875 35.558594 80.652344 35.328125 80.5 35.101562 C 80.460938 36.242188 80.417969 37.378906 80.378906 38.550781 C 79.929688 38.550781 79.484375 38.550781 79.023438 38.550781 C 79.023438 36.640625 79.023438 34.730469 79.023438 32.761719 Z M 79.023438 32.761719 "/>
<path style=" stroke:none;fill-rule:nonzero;fill:rgb(52.941179%,52.941179%,52.941179%);fill-opacity:1;" d="M 124.746094 32.761719 C 125.3125 32.761719 125.878906 32.761719 126.464844 32.761719 C 126.828125 33.207031 126.992188 33.484375 127.203125 33.992188 C 127.324219 34.222656 127.445312 34.453125 127.570312 34.679688 C 127.6875 34.90625 127.804688 35.136719 127.925781 35.363281 C 128.132812 35.765625 128.339844 36.167969 128.554688 36.582031 C 128.59375 35.320312 128.636719 34.0625 128.675781 32.761719 C 129.082031 32.761719 129.488281 32.761719 129.90625 32.761719 C 129.90625 34.671875 129.90625 36.582031 129.90625 38.550781 C 129.339844 38.550781 128.769531 38.550781 128.183594 38.550781 C 128.074219 38.34375 127.964844 38.140625 127.847656 37.925781 C 127.703125 37.65625 127.554688 37.382812 127.410156 37.113281 C 127.335938 36.976562 127.261719 36.839844 127.1875 36.699219 C 127.117188 36.570312 127.046875 36.4375 126.972656 36.300781 C 126.910156 36.179688 126.84375 36.0625 126.777344 35.9375 C 126.597656 35.613281 126.410156 35.296875 126.21875 34.980469 C 126.179688 36.15625 126.136719 37.335938 126.097656 38.550781 C 125.648438 38.550781 125.203125 38.550781 124.746094 38.550781 C 124.746094 36.640625 124.746094 34.730469 124.746094 32.761719 Z M 124.746094 32.761719 "/>
<path style=" stroke:none;fill-rule:nonzero;fill:rgb(52.941179%,52.941179%,52.941179%);fill-opacity:1;" d="M 92.789062 32.761719 C 93.640625 32.75 93.640625 32.75 94.511719 32.738281 C 94.777344 32.734375 94.777344 32.734375 95.046875 32.730469 C 96.863281 32.71875 96.863281 32.71875 97.523438 33.292969 C 98.308594 34.160156 98.261719 35.191406 98.238281 36.289062 C 98.195312 37.105469 97.976562 37.671875 97.390625 38.242188 C 96.871094 38.566406 96.417969 38.566406 95.828125 38.5625 C 95.667969 38.5625 95.507812 38.5625 95.34375 38.5625 C 95.144531 38.5625 94.941406 38.558594 94.734375 38.558594 C 93.769531 38.554688 93.769531 38.554688 92.789062 38.550781 C 92.789062 36.640625 92.789062 34.730469 92.789062 32.761719 Z M 94.140625 33.871094 C 94.140625 35.050781 94.140625 36.226562 94.140625 37.441406 C 95.734375 37.589844 95.734375 37.589844 96.476562 37.074219 C 96.738281 36.609375 96.757812 36.183594 96.761719 35.65625 C 96.761719 35.519531 96.765625 35.386719 96.765625 35.246094 C 96.71875 34.804688 96.625 34.585938 96.355469 34.242188 C 95.628906 33.734375 95.628906 33.734375 94.140625 33.871094 Z M 94.140625 33.871094 "/>
<path style=" stroke:none;fill-rule:nonzero;fill:rgb(52.941179%,52.941179%,52.941179%);fill-opacity:1;" d="M 88.453125 32.738281 C 88.605469 32.738281 88.757812 32.738281 88.917969 32.742188 C 89.152344 32.742188 89.152344 32.742188 89.394531 32.746094 C 89.554688 32.75 89.714844 32.75 89.882812 32.75 C 90.277344 32.753906 90.671875 32.757812 91.070312 32.761719 C 91.070312 33.128906 91.070312 33.492188 91.070312 33.871094 C 90.988281 33.875 90.90625 33.875 90.820312 33.878906 C 90.445312 33.890625 90.070312 33.902344 89.695312 33.917969 C 89.566406 33.921875 89.433594 33.925781 89.300781 33.929688 C 89.113281 33.9375 89.113281 33.9375 88.921875 33.941406 C 88.804688 33.945312 88.691406 33.949219 88.570312 33.953125 C 88.21875 33.996094 87.949219 34.085938 87.628906 34.242188 C 87.316406 34.648438 87.34375 35.082031 87.34375 35.578125 C 87.34375 35.726562 87.339844 35.875 87.335938 36.027344 C 87.386719 36.5 87.496094 36.796875 87.75 37.195312 C 88.160156 37.332031 88.511719 37.359375 88.941406 37.390625 C 89.085938 37.398438 89.230469 37.410156 89.382812 37.421875 C 89.546875 37.429688 89.546875 37.429688 89.71875 37.441406 C 89.71875 37.035156 89.71875 36.628906 89.71875 36.210938 C 89.191406 36.210938 88.664062 36.210938 88.121094 36.210938 C 88.121094 35.84375 88.121094 35.480469 88.121094 35.101562 C 89.09375 35.101562 90.066406 35.101562 91.070312 35.101562 C 91.070312 36.242188 91.070312 37.378906 91.070312 38.550781 C 90.539062 38.5625 90.011719 38.574219 89.480469 38.578125 C 89.300781 38.582031 89.121094 38.585938 88.941406 38.589844 C 88.683594 38.59375 88.425781 38.597656 88.164062 38.597656 C 87.929688 38.601562 87.929688 38.601562 87.691406 38.605469 C 87.050781 38.523438 86.679688 38.226562 86.246094 37.757812 C 85.605469 36.820312 85.679688 35.707031 85.785156 34.609375 C 85.925781 34.015625 86.144531 33.636719 86.566406 33.203125 C 87.1875 32.832031 87.738281 32.730469 88.453125 32.738281 Z M 88.453125 32.738281 "/>
<path style=" stroke:none;fill-rule:nonzero;fill:rgb(52.941179%,52.941179%,52.941179%);fill-opacity:1;" d="M 135.121094 32.738281 C 135.28125 32.742188 135.441406 32.742188 135.605469 32.746094 C 136 32.75 136.394531 32.753906 136.789062 32.761719 C 136.789062 33.128906 136.789062 33.492188 136.789062 33.871094 C 136.707031 33.871094 136.625 33.875 136.539062 33.875 C 136.164062 33.886719 135.789062 33.898438 135.414062 33.910156 C 135.285156 33.914062 135.152344 33.914062 135.019531 33.917969 C 134.894531 33.921875 134.769531 33.925781 134.640625 33.929688 C 134.523438 33.933594 134.410156 33.9375 134.292969 33.941406 C 133.902344 34.003906 133.667969 34.136719 133.347656 34.363281 C 132.945312 34.933594 133.054688 35.667969 133.101562 36.335938 C 133.160156 36.640625 133.242188 36.902344 133.347656 37.195312 C 133.785156 37.324219 134.214844 37.355469 134.667969 37.390625 C 134.8125 37.398438 134.957031 37.410156 135.105469 37.421875 C 135.269531 37.429688 135.269531 37.429688 135.4375 37.441406 C 135.4375 37.035156 135.4375 36.628906 135.4375 36.210938 C 134.910156 36.210938 134.382812 36.210938 133.839844 36.210938 C 133.839844 35.84375 133.839844 35.480469 133.839844 35.101562 C 134.8125 35.101562 135.785156 35.101562 136.789062 35.101562 C 136.789062 36.242188 136.789062 37.378906 136.789062 38.550781 C 136.277344 38.558594 135.765625 38.566406 135.253906 38.570312 C 135.078125 38.574219 134.90625 38.574219 134.734375 38.578125 C 134.480469 38.582031 134.230469 38.585938 133.980469 38.585938 C 133.753906 38.589844 133.753906 38.589844 133.523438 38.59375 C 132.867188 38.527344 132.484375 38.304688 132.027344 37.835938 C 131.554688 37.164062 131.457031 36.542969 131.464844 35.734375 C 131.464844 35.648438 131.464844 35.558594 131.46875 35.46875 C 131.484375 34.621094 131.613281 34.074219 132.148438 33.402344 C 133.085938 32.652344 133.960938 32.714844 135.121094 32.738281 Z M 135.121094 32.738281 "/>
<path style=" stroke:none;fill-rule:nonzero;fill:rgb(53.333336%,53.333336%,53.333336%);fill-opacity:1;" d="M 74.523438 32.722656 C 74.660156 32.722656 74.660156 32.722656 74.796875 32.71875 C 75.585938 32.71875 76.152344 32.898438 76.78125 33.402344 C 77.5625 34.382812 77.535156 35.507812 77.425781 36.703125 C 77.214844 37.554688 76.824219 37.996094 76.082031 38.453125 C 75.027344 38.867188 73.902344 38.734375 72.878906 38.304688 C 72.324219 37.972656 72.011719 37.550781 71.773438 36.949219 C 71.523438 35.894531 71.53125 34.730469 72.019531 33.746094 C 72.710938 32.921875 73.476562 32.71875 74.523438 32.722656 Z M 73.742188 33.992188 C 73.167969 34.597656 73.085938 35.113281 73.101562 35.917969 C 73.140625 36.386719 73.242188 36.792969 73.496094 37.195312 C 73.976562 37.542969 74.382812 37.652344 74.96875 37.566406 C 75.375 37.355469 75.636719 37.207031 75.847656 36.796875 C 76.082031 36.03125 76.046875 35.171875 75.820312 34.410156 C 75.503906 34.019531 75.199219 33.902344 74.722656 33.746094 C 74.3125 33.746094 74.105469 33.808594 73.742188 33.992188 Z M 73.742188 33.992188 "/>
<path style=" stroke:none;fill-rule:nonzero;fill:rgb(52.941179%,52.941179%,52.941179%);fill-opacity:1;" d="M 148.957031 32.761719 C 149.484375 32.761719 150.011719 32.761719 150.554688 32.761719 C 150.894531 33.433594 151.207031 34.105469 151.496094 34.800781 C 151.535156 34.898438 151.578125 34.992188 151.617188 35.09375 C 151.703125 35.292969 151.785156 35.496094 151.871094 35.695312 C 152 36.003906 152.128906 36.3125 152.257812 36.621094 C 152.339844 36.816406 152.421875 37.015625 152.503906 37.210938 C 152.5625 37.347656 152.5625 37.347656 152.621094 37.488281 C 152.773438 37.863281 152.886719 38.144531 152.886719 38.550781 C 152.359375 38.550781 151.835938 38.550781 151.289062 38.550781 C 150.921875 37.734375 150.921875 37.734375 150.921875 37.320312 C 150.191406 37.320312 149.460938 37.320312 148.710938 37.320312 C 148.652344 37.5 148.59375 37.679688 148.535156 37.867188 C 148.355469 38.414062 148.355469 38.414062 148.21875 38.550781 C 147.949219 38.558594 147.679688 38.5625 147.410156 38.558594 C 147.191406 38.558594 147.191406 38.558594 146.964844 38.554688 C 146.851562 38.554688 146.738281 38.554688 146.621094 38.550781 C 147.390625 36.617188 148.164062 34.6875 148.957031 32.761719 Z M 149.691406 34.488281 C 149.609375 34.683594 149.527344 34.882812 149.449219 35.078125 C 149.402344 35.191406 149.355469 35.300781 149.308594 35.414062 C 149.179688 35.722656 149.179688 35.722656 149.203125 36.089844 C 149.605469 36.089844 150.011719 36.089844 150.429688 36.089844 C 150.378906 35.890625 150.324219 35.695312 150.269531 35.496094 C 150.222656 35.332031 150.222656 35.332031 150.179688 35.160156 C 150.058594 34.851562 149.945312 34.699219 149.691406 34.488281 Z M 149.691406 34.488281 "/>
<path style=" stroke:none;fill-rule:nonzero;fill:rgb(52.941179%,52.941179%,52.941179%);fill-opacity:1;" d="M 102 32.75 C 102.222656 32.753906 102.222656 32.753906 102.445312 32.753906 C 102.667969 32.757812 102.667969 32.757812 102.890625 32.757812 C 103.003906 32.757812 103.121094 32.761719 103.238281 32.761719 C 103.570312 33.566406 103.902344 34.371094 104.234375 35.175781 C 104.347656 35.449219 104.460938 35.722656 104.574219 36 C 104.738281 36.390625 104.898438 36.785156 105.0625 37.175781 C 105.136719 37.363281 105.136719 37.363281 105.214844 37.550781 C 105.261719 37.664062 105.308594 37.777344 105.355469 37.894531 C 105.398438 37.996094 105.441406 38.09375 105.484375 38.199219 C 105.570312 38.429688 105.570312 38.429688 105.570312 38.550781 C 105.042969 38.550781 104.515625 38.550781 103.972656 38.550781 C 103.484375 37.597656 103.484375 37.597656 103.484375 37.320312 C 102.753906 37.320312 102.023438 37.320312 101.269531 37.320312 C 101.210938 37.625 101.210938 37.625 101.148438 37.933594 C 101.027344 38.242188 101.027344 38.242188 100.902344 38.550781 C 100.375 38.550781 99.847656 38.550781 99.304688 38.550781 C 99.597656 37.441406 100.035156 36.398438 100.480469 35.339844 C 100.609375 35.03125 100.738281 34.722656 100.867188 34.414062 C 100.949219 34.214844 101.03125 34.019531 101.113281 33.824219 C 101.171875 33.6875 101.171875 33.6875 101.230469 33.542969 C 101.558594 32.765625 101.558594 32.765625 102 32.75 Z M 102.375 34.488281 C 102.296875 34.636719 102.21875 34.789062 102.136719 34.941406 C 102.070312 35.066406 102.070312 35.066406 102.003906 35.195312 C 101.851562 35.519531 101.851562 35.519531 101.761719 36.089844 C 102.207031 36.089844 102.652344 36.089844 103.113281 36.089844 C 102.910156 35.558594 102.707031 35.03125 102.5 34.488281 C 102.457031 34.488281 102.417969 34.488281 102.375 34.488281 Z M 102.375 34.488281 "/>
<path style=" stroke:none;fill-rule:nonzero;fill:rgb(52.941179%,52.941179%,52.941179%);fill-opacity:1;" d="M 111.960938 32.761719 C 112.410156 32.761719 112.855469 32.761719 113.316406 32.761719 C 113.316406 33.535156 113.316406 34.308594 113.316406 35.101562 C 114.003906 35.101562 114.695312 35.101562 115.402344 35.101562 C 115.402344 34.332031 115.402344 33.558594 115.402344 32.761719 C 115.851562 32.761719 116.296875 32.761719 116.753906 32.761719 C 116.753906 34.671875 116.753906 36.582031 116.753906 38.550781 C 116.308594 38.550781 115.863281 38.550781 115.402344 38.550781 C 115.402344 37.777344 115.402344 37.007812 115.402344 36.210938 C 114.714844 36.210938 114.023438 36.210938 113.316406 36.210938 C 113.316406 36.984375 113.316406 37.753906 113.316406 38.550781 C 112.867188 38.550781 112.421875 38.550781 111.960938 38.550781 C 111.960938 36.640625 111.960938 34.730469 111.960938 32.761719 Z M 111.960938 32.761719 "/>
<path style=" stroke:none;fill-rule:nonzero;fill:rgb(52.941179%,52.941179%,52.941179%);fill-opacity:1;" d="M 120.78125 32.75 C 120.917969 32.75 121.058594 32.75 121.199219 32.75 C 121.34375 32.753906 121.484375 32.753906 121.632812 32.753906 C 121.777344 32.753906 121.921875 32.757812 122.074219 32.757812 C 122.429688 32.757812 122.789062 32.761719 123.148438 32.761719 C 123.148438 33.128906 123.148438 33.492188 123.148438 33.871094 C 122.90625 33.882812 122.90625 33.882812 122.65625 33.894531 C 122.445312 33.902344 122.230469 33.914062 122.015625 33.925781 C 121.859375 33.933594 121.859375 33.933594 121.695312 33.941406 C 121.183594 33.964844 120.695312 33.996094 120.195312 34.117188 C 120.117188 34.441406 120.035156 34.769531 119.949219 35.101562 C 121.003906 35.101562 122.058594 35.101562 123.148438 35.101562 C 123.148438 35.46875 123.148438 35.835938 123.148438 36.210938 C 122.09375 36.210938 121.039062 36.210938 119.949219 36.210938 C 120.214844 37.023438 120.214844 37.023438 120.554688 37.246094 C 120.832031 37.324219 121.082031 37.359375 121.371094 37.371094 C 121.472656 37.375 121.578125 37.378906 121.683594 37.386719 C 121.84375 37.390625 121.84375 37.390625 122.007812 37.398438 C 122.117188 37.402344 122.226562 37.40625 122.339844 37.410156 C 122.609375 37.421875 122.878906 37.433594 123.148438 37.441406 C 123.148438 37.808594 123.148438 38.175781 123.148438 38.550781 C 122.648438 38.5625 122.152344 38.570312 121.65625 38.574219 C 121.515625 38.578125 121.375 38.582031 121.230469 38.582031 C 120.292969 38.59375 119.703125 38.539062 119.007812 37.859375 C 118.367188 37.015625 118.230469 36.011719 118.351562 34.980469 C 118.542969 34.140625 118.8125 33.542969 119.5 33.011719 C 119.925781 32.75 120.292969 32.746094 120.78125 32.75 Z M 120.78125 32.75 "/>
<path style=" stroke:none;fill-rule:nonzero;fill:rgb(52.941179%,52.941179%,52.941179%);fill-opacity:1;" d="M 65.382812 32.761719 C 65.789062 32.761719 66.195312 32.761719 66.613281 32.761719 C 66.613281 33.535156 66.613281 34.308594 66.613281 35.101562 C 67.300781 35.101562 67.992188 35.101562 68.703125 35.101562 C 68.703125 34.332031 68.703125 33.558594 68.703125 32.761719 C 69.148438 32.761719 69.59375 32.761719 70.054688 32.761719 C 70.054688 34.671875 70.054688 36.582031 70.054688 38.550781 C 69.605469 38.550781 69.160156 38.550781 68.703125 38.550781 C 68.703125 37.777344 68.703125 37.007812 68.703125 36.210938 C 68.011719 36.210938 67.324219 36.210938 66.613281 36.210938 C 66.613281 36.984375 66.613281 37.753906 66.613281 38.550781 C 66.207031 38.550781 65.800781 38.550781 65.382812 38.550781 C 65.382812 36.640625 65.382812 34.730469 65.382812 32.761719 Z M 65.382812 32.761719 "/>
<path style=" stroke:none;fill-rule:nonzero;fill:rgb(52.941179%,52.941179%,52.941179%);fill-opacity:1;" d="M 58.625 32.761719 C 60.285156 32.761719 61.949219 32.761719 63.664062 32.761719 C 63.664062 33.992188 63.664062 33.992188 63.285156 34.441406 C 63.125 34.578125 62.964844 34.71875 62.800781 34.855469 C 62.667969 35.003906 62.539062 35.15625 62.410156 35.308594 C 61.800781 36.019531 61.128906 36.664062 60.46875 37.320312 C 62.050781 37.378906 62.050781 37.378906 63.664062 37.441406 C 63.664062 37.808594 63.664062 38.175781 63.664062 38.550781 C 62 38.550781 60.335938 38.550781 58.625 38.550781 C 58.625 37.441406 58.625 37.441406 58.757812 37.171875 C 58.816406 37.113281 58.878906 37.050781 58.945312 36.988281 C 59.046875 36.878906 59.046875 36.878906 59.15625 36.769531 C 59.230469 36.695312 59.304688 36.625 59.382812 36.550781 C 59.460938 36.472656 59.539062 36.394531 59.617188 36.316406 C 59.855469 36.074219 60.101562 35.832031 60.34375 35.59375 C 60.570312 35.367188 60.792969 35.140625 61.019531 34.914062 C 61.324219 34.605469 61.632812 34.300781 61.941406 33.992188 C 60.847656 33.953125 59.75 33.914062 58.625 33.871094 C 58.625 33.503906 58.625 33.140625 58.625 32.761719 Z M 58.625 32.761719 "/>
<path style=" stroke:none;fill-rule:nonzero;fill:rgb(52.941179%,52.941179%,52.941179%);fill-opacity:1;" d="M 140.84375 32.761719 C 141.289062 32.761719 141.738281 32.761719 142.195312 32.761719 C 142.207031 33.320312 142.210938 33.878906 142.214844 34.4375 C 142.21875 34.628906 142.222656 34.816406 142.222656 35.007812 C 142.257812 36.996094 142.257812 36.996094 141.828125 37.933594 C 141.4375 38.324219 141.113281 38.539062 140.554688 38.566406 C 140.441406 38.566406 140.332031 38.5625 140.21875 38.5625 C 140.097656 38.5625 139.976562 38.5625 139.851562 38.5625 C 139.726562 38.5625 139.597656 38.558594 139.46875 38.558594 C 139.34375 38.558594 139.214844 38.558594 139.082031 38.558594 C 138.769531 38.554688 138.453125 38.554688 138.140625 38.550781 C 138.140625 38.183594 138.140625 37.820312 138.140625 37.441406 C 138.285156 37.4375 138.433594 37.429688 138.585938 37.425781 C 138.777344 37.414062 138.96875 37.40625 139.160156 37.398438 C 139.257812 37.394531 139.355469 37.390625 139.453125 37.386719 C 139.546875 37.378906 139.640625 37.375 139.738281 37.371094 C 139.824219 37.367188 139.90625 37.363281 139.996094 37.359375 C 140.269531 37.328125 140.269531 37.328125 140.597656 37.074219 C 140.742188 36.644531 140.75 36.25 140.761719 35.804688 C 140.761719 35.71875 140.765625 35.632812 140.769531 35.542969 C 140.777344 35.265625 140.785156 34.988281 140.789062 34.710938 C 140.796875 34.523438 140.800781 34.332031 140.804688 34.144531 C 140.820312 33.683594 140.832031 33.222656 140.84375 32.761719 Z M 140.84375 32.761719 "/>
<path style=" stroke:none;fill-rule:nonzero;fill:rgb(52.941179%,52.941179%,52.941179%);fill-opacity:1;" d="M 144.039062 32.761719 C 144.484375 32.761719 144.933594 32.761719 145.390625 32.761719 C 145.390625 34.671875 145.390625 36.582031 145.390625 38.550781 C 144.945312 38.550781 144.5 38.550781 144.039062 38.550781 C 144.039062 36.640625 144.039062 34.730469 144.039062 32.761719 Z M 144.039062 32.761719 "/>
</g>
</svg>
