<svg width="215" height="42" viewBox="0 0 215 42" fill="none" xmlns="http://www.w3.org/2000/svg">
<path d="M28.455 2.41846C19.905 2.41846 12.9739 9.34945 12.9739 17.8994V18.7839H25.4279L26.1893 17.8292H30.7208L31.4822 18.7839H43.9362V17.8994C43.9362 9.34945 37.0051 2.41846 28.455 2.41846Z" fill="#FC5A11"/>
<path d="M44.5252 24.8521H12.3854C11.145 24.8521 10.1394 23.8466 10.1394 22.6062C10.1394 21.3659 11.145 20.3604 12.3854 20.3604H44.5252C45.7656 20.3604 46.7711 21.3659 46.7711 22.6062C46.7708 23.8469 45.7656 24.8521 44.5252 24.8521Z" fill="#FC5A11"/>
<path d="M28.7839 9.93233H28.127C27.2905 9.93233 26.5694 9.34443 26.4009 8.52476L25.0836 2.11713C24.8589 1.02393 25.694 0 26.81 0H30.1018C31.2178 0 32.0529 1.02422 31.8279 2.11713L30.5106 8.52476C30.3416 9.34443 29.6202 9.93233 28.7839 9.93233Z" fill="#FC5A11"/>
<path d="M38.3956 6.03421L35.2898 10.748C34.722 11.6097 34.8383 12.7518 35.5677 13.4812L36.1408 14.0543C36.8705 14.7839 38.0126 14.9 38.874 14.3322L42.6933 11.8155C41.7297 9.56305 40.2467 7.58653 38.3956 6.03421Z" fill="#FC5A11"/>
<path d="M18.0369 14.3322C18.8987 14.9 20.0407 14.7836 20.7701 14.0543L21.3432 13.4812C22.0729 12.7515 22.189 11.6094 21.6212 10.748L18.515 6.03421C16.664 7.58653 15.1809 9.56305 14.2173 11.8155L18.0369 14.3322Z" fill="#FC5A11"/>
<path d="M43.8756 27.4462C43.9188 27.1102 43.952 26.7709 43.9747 26.429H39.7046C39.8479 32.2041 34.2744 37.4229 28.4551 36.6201C32.741 36.1213 36.628 33.5154 38.4412 29.5831C38.9092 28.5918 39.2437 27.5335 39.4636 26.429H38.2991C37.8059 31.4315 33.5873 35.3395 28.4551 35.3395C23.323 35.3395 19.1043 31.4315 18.6112 26.429H12.9355C12.958 26.7709 12.9915 27.1102 13.0347 27.4462L15.272 27.8375C15.4041 28.5707 15.5938 29.2839 15.8401 29.9706L14.0965 31.4294C14.6152 32.673 15.2919 33.8337 16.0997 34.889L18.2349 34.1084C18.7112 34.6696 19.2325 35.1912 19.7941 35.6675L19.0135 37.8027C20.0688 38.6105 21.2295 39.2869 22.4731 39.8059L23.9319 38.0623C24.6187 38.3086 25.3318 38.498 26.065 38.6304L26.4564 40.8677C27.1115 40.9518 27.7778 41 28.4557 41C29.1336 41 29.8 40.9518 30.4551 40.8677L30.8464 38.6304C31.5797 38.4983 32.2928 38.3086 32.9796 38.0626L34.4384 39.8062C35.682 39.2872 36.8427 38.6108 37.898 37.803L37.1174 35.6678C37.6786 35.1915 38.2002 34.6702 38.6765 34.1087L40.8117 34.8893C41.6196 33.834 42.296 32.6733 42.8149 31.4297L41.0713 29.9709C41.3176 29.2842 41.5071 28.571 41.6391 27.8378L43.8756 27.4462Z" fill="#FC5A11"/>
<path d="M53.9435 6.71476C53.363 7.02794 52.6387 6.81096 52.3258 6.23077L51.695 5.0609C51.3821 4.48041 51.5987 3.75605 52.1793 3.44316L55.1342 1.84968C53.5247 0.735466 51.3012 0.892063 49.8679 2.32539C49.198 2.99528 48.8081 3.83775 48.6962 4.70982C48.5503 5.84535 48.0636 6.90924 47.254 7.71885L43.9528 11.0201C44.0729 11.2894 44.1863 11.5621 44.2926 11.8386L45.2866 10.8445C45.7573 10.3739 46.5202 10.3739 46.9908 10.8445C47.4615 11.3152 47.4615 12.078 46.9908 12.5487L45.0679 14.4716C45.1351 14.7976 45.1901 15.1273 45.2384 15.4598L49.309 11.3892C50.4129 10.2853 51.8394 9.55358 53.3847 9.33127C54.3636 9.19037 55.3014 8.69779 55.9941 7.85147C56.6377 7.06525 56.9396 6.08572 56.9085 5.11625L53.9435 6.71476Z" fill="#FC5A11"/>
<path d="M9.91955 12.5487C9.44887 12.078 9.44887 11.3152 9.91955 10.8445C10.3902 10.3738 11.1531 10.3738 11.6238 10.8445L12.6178 11.8385C12.7241 11.562 12.8375 11.2894 12.9576 11.02L9.65638 7.71882C8.84676 6.90921 8.3601 5.84532 8.21416 4.70979C8.10197 3.83802 7.7124 2.99554 7.0425 2.32535C5.60915 0.89203 3.38572 0.735437 1.77624 1.84965L4.73115 3.44312C5.31165 3.75602 5.52834 4.48037 5.21544 5.06087L4.58462 6.23073C4.27172 6.81123 3.54735 7.02792 2.96685 6.71473L0.00217492 5.11593C-0.0289075 6.08539 0.273033 7.06492 0.916588 7.85115C1.60928 8.69747 2.54709 9.19004 3.52603 9.33094C5.07128 9.55326 6.49781 10.285 7.60169 11.3889L11.6723 15.4594C11.7203 15.1273 11.7756 14.7972 11.8428 14.4713L9.91955 12.5487Z" fill="#FC5A11"/>
<path d="M75.3248 24.9124C73.4691 24.9124 71.8338 24.5529 70.4188 23.8338C69.0271 23.1148 67.9369 22.0941 67.1482 20.772C66.3827 19.4498 66 17.9189 66 16.1792V8.66369C66 6.94719 66.3827 5.43945 67.1482 4.14048C67.9369 2.81831 69.0271 1.79769 70.4188 1.07861C71.8338 0.359537 73.4691 0 75.3248 0C77.1804 0 78.8042 0.347939 80.1959 1.04382C81.6109 1.7165 82.7011 2.67913 83.4666 3.93171C84.2552 5.1611 84.6495 6.58765 84.6495 8.21136C84.6495 8.32734 84.6032 8.42013 84.5104 8.48972C84.4408 8.5593 84.348 8.5941 84.232 8.5941L79.2913 8.90724C79.0129 8.90724 78.8738 8.77967 78.8738 8.52451C78.8738 7.4343 78.549 6.56445 77.8995 5.91497C77.25 5.26548 76.3918 4.94074 75.3248 4.94074C74.2578 4.94074 73.3995 5.27708 72.75 5.94976C72.1005 6.59925 71.7758 7.4575 71.7758 8.52451V16.4227C71.7758 17.4897 72.1005 18.348 72.75 18.9975C73.3995 19.647 74.2578 19.9717 75.3248 19.9717C76.3918 19.9717 77.25 19.647 77.8995 18.9975C78.549 18.348 78.8738 17.4897 78.8738 16.4227C78.8738 16.1676 79.0129 16.04 79.2913 16.04L84.232 16.2836C84.348 16.2836 84.4408 16.3183 84.5104 16.3879C84.6032 16.4575 84.6495 16.5387 84.6495 16.6315C84.6495 18.2784 84.2552 19.7282 83.4666 20.9807C82.7011 22.2333 81.6109 23.2075 80.1959 23.9034C78.8042 24.5761 77.1804 24.9124 75.3248 24.9124Z" fill="white"/>
<path d="M96.6665 25.0168C94.7876 25.0168 93.1291 24.6457 91.691 23.9034C90.276 23.138 89.1742 22.0709 88.3855 20.7024C87.5969 19.3338 87.2025 17.7449 87.2025 15.9356V8.97683C87.2025 7.21394 87.5969 5.65981 88.3855 4.31444C89.1742 2.94588 90.276 1.89047 91.691 1.1482C93.1291 0.382733 94.7876 0 96.6665 0C98.5454 0 100.204 0.382733 101.642 1.1482C103.08 1.89047 104.194 2.94588 104.982 4.31444C105.771 5.65981 106.165 7.21394 106.165 8.97683V15.9356C106.165 17.7449 105.771 19.3338 104.982 20.7024C104.194 22.0709 103.08 23.138 101.642 23.9034C100.204 24.6457 98.5454 25.0168 96.6665 25.0168ZM96.6665 20.0761C97.7799 20.0761 98.6729 19.7166 99.3456 18.9975C100.042 18.2784 100.389 17.3158 100.389 16.1096V8.90724C100.389 7.72425 100.042 6.77322 99.3456 6.05414C98.6729 5.31187 97.7799 4.94074 96.6665 4.94074C95.5763 4.94074 94.6832 5.31187 93.9874 6.05414C93.3147 6.77322 92.9783 7.72425 92.9783 8.90724V16.1096C92.9783 17.3158 93.3147 18.2784 93.9874 18.9975C94.6832 19.7166 95.5763 20.0761 96.6665 20.0761Z" fill="white"/>
<path d="M123.009 0.695878C123.009 0.579898 123.044 0.487114 123.113 0.417526C123.206 0.324742 123.31 0.27835 123.426 0.27835H128.367C128.483 0.27835 128.576 0.324742 128.645 0.417526C128.738 0.487114 128.785 0.579898 128.785 0.695878V24.2166C128.785 24.3325 128.738 24.4369 128.645 24.5297C128.576 24.5993 128.483 24.6341 128.367 24.6341H123.635C123.403 24.6341 123.241 24.5413 123.148 24.3557L115.145 11.0645C115.099 10.9949 115.053 10.9717 115.006 10.9949C114.96 10.9949 114.937 11.0413 114.937 11.1341L114.971 24.2166C114.971 24.3325 114.925 24.4369 114.832 24.5297C114.763 24.5993 114.67 24.6341 114.554 24.6341H109.613C109.497 24.6341 109.393 24.5993 109.3 24.5297C109.23 24.4369 109.196 24.3325 109.196 24.2166V0.695878C109.196 0.579898 109.23 0.487114 109.3 0.417526C109.393 0.324742 109.497 0.27835 109.613 0.27835H114.38C114.612 0.27835 114.774 0.371134 114.867 0.556702L122.835 13.8132C122.881 13.8828 122.928 13.9176 122.974 13.9176C123.02 13.8944 123.044 13.8364 123.044 13.7436L123.009 0.695878Z" fill="white"/>
<path d="M131.92 24.6341C131.804 24.6341 131.699 24.5993 131.607 24.5297C131.537 24.4369 131.502 24.3325 131.502 24.2166V19.6934C131.502 19.5078 131.56 19.3338 131.676 19.1715L142.323 5.42785C142.37 5.38146 142.381 5.33507 142.358 5.28867C142.335 5.24228 142.288 5.21909 142.219 5.21909H131.92C131.804 5.21909 131.699 5.18429 131.607 5.11471C131.537 5.02192 131.502 4.91754 131.502 4.80156V0.695878C131.502 0.579898 131.537 0.487114 131.607 0.417526C131.699 0.324742 131.804 0.27835 131.92 0.27835H148.482C148.598 0.27835 148.69 0.324742 148.76 0.417526C148.853 0.487114 148.899 0.579898 148.899 0.695878V5.21909C148.899 5.40466 148.841 5.57862 148.725 5.741L138.009 19.4846C137.962 19.531 137.951 19.5774 137.974 19.6238C137.997 19.6702 138.044 19.6934 138.113 19.6934H148.482C148.598 19.6934 148.69 19.7398 148.76 19.8325C148.853 19.9021 148.899 19.9949 148.899 20.1109V24.2166C148.899 24.3325 148.853 24.4369 148.76 24.5297C148.69 24.5993 148.598 24.6341 148.482 24.6341H131.92Z" fill="white"/>
<path d="M168.509 0.27835C168.625 0.27835 168.718 0.324742 168.787 0.417526C168.88 0.487114 168.926 0.579898 168.926 0.695878V3.37501C168.926 3.49099 168.88 3.59537 168.787 3.68815C168.718 3.75774 168.625 3.79254 168.509 3.79254H162.107C161.991 3.79254 161.933 3.85053 161.933 3.96651V24.2166C161.933 24.3325 161.886 24.4369 161.794 24.5297C161.724 24.5993 161.631 24.6341 161.515 24.6341H158.314C158.198 24.6341 158.094 24.5993 158.001 24.5297C157.932 24.4369 157.897 24.3325 157.897 24.2166V3.96651C157.897 3.85053 157.839 3.79254 157.723 3.79254H151.564C151.448 3.79254 151.344 3.75774 151.251 3.68815C151.182 3.59537 151.147 3.49099 151.147 3.37501V0.695878C151.147 0.579898 151.182 0.487114 151.251 0.417526C151.344 0.324742 151.448 0.27835 151.564 0.27835H168.509Z" fill="white"/>
<path d="M186.327 24.6341C186.095 24.6341 185.933 24.5297 185.84 24.321L181.247 14.3003C181.201 14.2075 181.131 14.1611 181.038 14.1611H176.863C176.747 14.1611 176.689 14.2191 176.689 14.3351V24.2166C176.689 24.3325 176.643 24.4369 176.55 24.5297C176.48 24.5993 176.387 24.6341 176.271 24.6341H173.07C172.954 24.6341 172.85 24.5993 172.757 24.5297C172.688 24.4369 172.653 24.3325 172.653 24.2166V0.695878C172.653 0.579898 172.688 0.487114 172.757 0.417526C172.85 0.324742 172.954 0.27835 173.07 0.27835H182.639C184.054 0.27835 185.306 0.579897 186.396 1.18299C187.487 1.76289 188.333 2.59794 188.936 3.68815C189.54 4.75517 189.841 5.98455 189.841 7.37631C189.841 8.97683 189.424 10.3454 188.589 11.482C187.777 12.5954 186.64 13.3725 185.179 13.8132C185.132 13.8132 185.098 13.8364 185.074 13.8828C185.051 13.9292 185.051 13.9756 185.074 14.022L189.98 24.147C190.027 24.2398 190.05 24.3094 190.05 24.3557C190.05 24.5413 189.922 24.6341 189.667 24.6341H186.327ZM176.863 3.75774C176.747 3.75774 176.689 3.81573 176.689 3.93171V10.8557C176.689 10.9717 176.747 11.0297 176.863 11.0297H182.082C183.195 11.0297 184.089 10.7049 184.761 10.0554C185.457 9.38276 185.805 8.50131 185.805 7.4111C185.805 6.32089 185.457 5.43945 184.761 4.76677C184.089 4.09408 183.195 3.75774 182.082 3.75774H176.863Z" fill="white"/>
<path d="M209.907 24.6341C209.675 24.6341 209.525 24.5181 209.455 24.2862L208.307 20.5632C208.26 20.4704 208.203 20.424 208.133 20.424H198.947C198.878 20.424 198.82 20.4704 198.773 20.5632L197.625 24.2862C197.556 24.5181 197.405 24.6341 197.173 24.6341H193.693C193.554 24.6341 193.45 24.5993 193.38 24.5297C193.311 24.4369 193.299 24.3094 193.345 24.147L200.896 0.626289C200.965 0.394329 201.116 0.27835 201.348 0.27835H205.697C205.929 0.27835 206.08 0.394329 206.15 0.626289L213.735 24.147C213.758 24.1934 213.77 24.2514 213.77 24.321C213.77 24.5297 213.642 24.6341 213.387 24.6341H209.907ZM199.852 17.049C199.829 17.1882 199.875 17.2578 199.991 17.2578H207.054C207.193 17.2578 207.24 17.1882 207.193 17.049L203.61 5.39306C203.587 5.30027 203.552 5.25388 203.505 5.25388C203.459 5.25388 203.424 5.30027 203.401 5.39306L199.852 17.049Z" fill="white"/>
<path d="M71.32 41C71.236 41 71.1707 40.958 71.124 40.874L69.64 37.822C69.6214 37.7846 69.5934 37.766 69.556 37.766H68.464C68.4174 37.766 68.394 37.7893 68.394 37.836V40.832C68.394 40.8786 68.3754 40.9206 68.338 40.958C68.31 40.986 68.2727 41 68.226 41H66.938C66.8914 41 66.8494 40.986 66.812 40.958C66.784 40.9206 66.77 40.8786 66.77 40.832V33.076C66.77 33.0293 66.784 32.992 66.812 32.964C66.8494 32.9266 66.8914 32.908 66.938 32.908H70.228C70.9934 32.908 71.6094 33.132 72.076 33.58C72.5427 34.028 72.776 34.616 72.776 35.344C72.776 35.8946 72.636 36.3706 72.356 36.772C72.0854 37.164 71.712 37.4393 71.236 37.598C71.1894 37.6166 71.1754 37.6493 71.194 37.696L72.804 40.804C72.8227 40.8413 72.832 40.8693 72.832 40.888C72.832 40.9626 72.7807 41 72.678 41H71.32ZM68.464 34.308C68.4174 34.308 68.394 34.3313 68.394 34.378V36.436C68.394 36.4826 68.4174 36.506 68.464 36.506H70.018C70.3634 36.506 70.6387 36.408 70.844 36.212C71.0587 36.0066 71.166 35.7406 71.166 35.414C71.166 35.0873 71.0587 34.8213 70.844 34.616C70.6387 34.4106 70.3634 34.308 70.018 34.308H68.464Z" fill="#888888"/>
<path d="M88.7444 34.168C88.7444 34.2146 88.7258 34.2566 88.6884 34.294C88.6604 34.322 88.6231 34.336 88.5764 34.336H84.6564C84.6098 34.336 84.5864 34.3593 84.5864 34.406V36.156C84.5864 36.2026 84.6098 36.226 84.6564 36.226H87.2324C87.2791 36.226 87.3164 36.2446 87.3444 36.282C87.3818 36.31 87.4004 36.3473 87.4004 36.394V37.444C87.4004 37.4906 87.3818 37.5326 87.3444 37.57C87.3164 37.598 87.2791 37.612 87.2324 37.612H84.6564C84.6098 37.612 84.5864 37.6353 84.5864 37.682V39.53C84.5864 39.5766 84.6098 39.6 84.6564 39.6H88.5764C88.6231 39.6 88.6604 39.6186 88.6884 39.656C88.7258 39.684 88.7444 39.7213 88.7444 39.768V40.832C88.7444 40.8786 88.7258 40.9206 88.6884 40.958C88.6604 40.986 88.6231 41 88.5764 41H83.1304C83.0838 41 83.0418 40.986 83.0044 40.958C82.9764 40.9206 82.9624 40.8786 82.9624 40.832V33.09C82.9624 33.0433 82.9764 33.006 83.0044 32.978C83.0418 32.9406 83.0838 32.922 83.1304 32.922H88.5764C88.6231 32.922 88.6604 32.9406 88.6884 32.978C88.7258 33.006 88.7444 33.0433 88.7444 33.09V34.168Z" fill="#888888"/>
<path d="M103.78 33.104C103.78 33.0573 103.794 33.02 103.822 32.992C103.859 32.9546 103.901 32.936 103.948 32.936H105.236C105.282 32.936 105.32 32.9546 105.348 32.992C105.385 33.02 105.404 33.0573 105.404 33.104V40.832C105.404 40.8786 105.385 40.9206 105.348 40.958C105.32 40.986 105.282 41 105.236 41H103.906C103.812 41 103.747 40.9626 103.71 40.888L100.63 35.848C100.611 35.82 100.592 35.8106 100.574 35.82C100.555 35.82 100.546 35.8386 100.546 35.876L100.574 40.832C100.574 40.8786 100.555 40.9206 100.518 40.958C100.49 40.986 100.452 41 100.406 41H99.1178C99.0711 41 99.0291 40.986 98.9918 40.958C98.9638 40.9206 98.9498 40.8786 98.9498 40.832V33.104C98.9498 33.0573 98.9638 33.02 98.9918 32.992C99.0291 32.9546 99.0711 32.936 99.1178 32.936H100.448C100.541 32.936 100.606 32.9733 100.644 33.048L103.71 38.06C103.728 38.088 103.747 38.102 103.766 38.102C103.784 38.0926 103.794 38.0693 103.794 38.032L103.78 33.104Z" fill="#888888"/>
<path d="M118.946 41.126C118.302 41.126 117.737 40.9953 117.252 40.734C116.767 40.4633 116.389 40.0853 116.118 39.6C115.856 39.1146 115.726 38.55 115.726 37.906V36.016C115.726 35.3813 115.856 34.8213 116.118 34.336C116.389 33.8506 116.767 33.4773 117.252 33.216C117.737 32.9546 118.302 32.824 118.946 32.824C119.581 32.824 120.14 32.9546 120.626 33.216C121.111 33.4773 121.489 33.8506 121.76 34.336C122.031 34.8213 122.166 35.3813 122.166 36.016V37.906C122.166 38.55 122.031 39.1146 121.76 39.6C121.489 40.0853 121.111 40.4633 120.626 40.734C120.14 40.9953 119.581 41.126 118.946 41.126ZM118.946 39.726C119.422 39.726 119.805 39.5673 120.094 39.25C120.393 38.9233 120.542 38.4893 120.542 37.948V36.002C120.542 35.4606 120.393 35.0313 120.094 34.714C119.805 34.3873 119.422 34.224 118.946 34.224C118.461 34.224 118.073 34.3873 117.784 34.714C117.494 35.0313 117.35 35.4606 117.35 36.002V37.948C117.35 38.4893 117.494 38.9233 117.784 39.25C118.073 39.5673 118.461 39.726 118.946 39.726Z" fill="#888888"/>
<path d="M134.531 41C134.438 41 134.377 40.9533 134.349 40.86L131.913 33.118L131.899 33.062C131.899 32.9686 131.95 32.922 132.053 32.922H133.439C133.542 32.922 133.607 32.9686 133.635 33.062L135.231 38.76C135.24 38.788 135.254 38.802 135.273 38.802C135.292 38.802 135.306 38.788 135.315 38.76L136.897 33.062C136.925 32.9686 136.99 32.922 137.093 32.922H138.451C138.507 32.922 138.549 32.9406 138.577 32.978C138.605 33.006 138.61 33.0526 138.591 33.118L136.127 40.86C136.099 40.9533 136.038 41 135.945 41H134.531Z" fill="#888888"/>
<path d="M152.544 41C152.451 41 152.39 40.9533 152.362 40.86L152.026 39.768C152.007 39.7306 151.984 39.712 151.956 39.712H148.932C148.904 39.712 148.881 39.7306 148.862 39.768L148.526 40.86C148.498 40.9533 148.437 41 148.344 41H147.056C147 41 146.958 40.986 146.93 40.958C146.911 40.9206 146.911 40.8693 146.93 40.804L149.492 33.062C149.52 32.9686 149.581 32.922 149.674 32.922H151.214C151.307 32.922 151.368 32.9686 151.396 33.062L153.958 40.804C153.967 40.8226 153.972 40.846 153.972 40.874C153.972 40.958 153.925 41 153.832 41H152.544ZM149.296 38.354C149.287 38.41 149.305 38.438 149.352 38.438H151.536C151.592 38.438 151.611 38.41 151.592 38.354L150.486 34.7C150.477 34.6626 150.463 34.644 150.444 34.644C150.425 34.644 150.411 34.6626 150.402 34.7L149.296 38.354Z" fill="#888888"/>
<path d="M168.834 32.922C168.88 32.922 168.918 32.9406 168.946 32.978C168.983 33.006 169.002 33.0433 169.002 33.09V34.168C169.002 34.2146 168.983 34.2566 168.946 34.294C168.918 34.322 168.88 34.336 168.834 34.336H166.622C166.575 34.336 166.552 34.3593 166.552 34.406V40.832C166.552 40.8786 166.533 40.9206 166.496 40.958C166.468 40.986 166.43 41 166.384 41H165.096C165.049 41 165.007 40.986 164.97 40.958C164.942 40.9206 164.928 40.8786 164.928 40.832V34.406C164.928 34.3593 164.904 34.336 164.858 34.336H162.716C162.669 34.336 162.627 34.322 162.59 34.294C162.562 34.2566 162.548 34.2146 162.548 34.168V33.09C162.548 33.0433 162.562 33.006 162.59 32.978C162.627 32.9406 162.669 32.922 162.716 32.922H168.834Z" fill="#888888"/>
<path d="M179.232 41C179.186 41 179.144 40.986 179.106 40.958C179.078 40.9206 179.064 40.8786 179.064 40.832V33.09C179.064 33.0433 179.078 33.006 179.106 32.978C179.144 32.9406 179.186 32.922 179.232 32.922H180.52C180.567 32.922 180.604 32.9406 180.632 32.978C180.67 33.006 180.688 33.0433 180.688 33.09V40.832C180.688 40.8786 180.67 40.9206 180.632 40.958C180.604 40.986 180.567 41 180.52 41H179.232Z" fill="#888888"/>
<path d="M194.22 41.126C193.576 41.126 193.012 40.9953 192.526 40.734C192.041 40.4633 191.663 40.0853 191.392 39.6C191.131 39.1146 191 38.55 191 37.906V36.016C191 35.3813 191.131 34.8213 191.392 34.336C191.663 33.8506 192.041 33.4773 192.526 33.216C193.012 32.9546 193.576 32.824 194.22 32.824C194.855 32.824 195.415 32.9546 195.9 33.216C196.386 33.4773 196.764 33.8506 197.034 34.336C197.305 34.8213 197.44 35.3813 197.44 36.016V37.906C197.44 38.55 197.305 39.1146 197.034 39.6C196.764 40.0853 196.386 40.4633 195.9 40.734C195.415 40.9953 194.855 41.126 194.22 41.126ZM194.22 39.726C194.696 39.726 195.079 39.5673 195.368 39.25C195.667 38.9233 195.816 38.4893 195.816 37.948V36.002C195.816 35.4606 195.667 35.0313 195.368 34.714C195.079 34.3873 194.696 34.224 194.22 34.224C193.735 34.224 193.348 34.3873 193.058 34.714C192.769 35.0313 192.624 35.4606 192.624 36.002V37.948C192.624 38.4893 192.769 38.9233 193.058 39.25C193.348 39.5673 193.735 39.726 194.22 39.726Z" fill="#888888"/>
<path d="M212.588 33.104C212.588 33.0573 212.602 33.02 212.63 32.992C212.667 32.9546 212.709 32.936 212.756 32.936H214.044C214.09 32.936 214.128 32.9546 214.156 32.992C214.193 33.02 214.212 33.0573 214.212 33.104V40.832C214.212 40.8786 214.193 40.9206 214.156 40.958C214.128 40.986 214.09 41 214.044 41H212.714C212.62 41 212.555 40.9626 212.518 40.888L209.438 35.848C209.419 35.82 209.4 35.8106 209.382 35.82C209.363 35.82 209.354 35.8386 209.354 35.876L209.382 40.832C209.382 40.8786 209.363 40.9206 209.326 40.958C209.298 40.986 209.26 41 209.214 41H207.926C207.879 41 207.837 40.986 207.8 40.958C207.772 40.9206 207.758 40.8786 207.758 40.832V33.104C207.758 33.0573 207.772 33.02 207.8 32.992C207.837 32.9546 207.879 32.936 207.926 32.936H209.256C209.349 32.936 209.414 32.9733 209.452 33.048L212.518 38.06C212.536 38.088 212.555 38.102 212.574 38.102C212.592 38.0926 212.602 38.0693 212.602 38.032L212.588 33.104Z" fill="#888888"/>
</svg>
